<svg xmlns="http://www.w3.org/2000/svg" viewBox="0 0 274.37 143.29"><defs><style>.cls-1{fill:#cfd1d7;}.cls-2{fill:#6e7d8f;}.cls-3{fill:#8592a1;}.cls-4{fill:#aeb2bd;}.cls-5{fill:#535e6b;}.cls-6{fill:#bec4cc;}.cls-7{fill:#ec6444;}.cls-8{fill:#eff1f3;}.cls-9{fill:#0097ae;}.cls-10{fill:#bbc2ca;}.cls-11{fill:#fff;}.cls-12{fill:#778799;}.cls-13{fill:#909ba8;}.cls-14{fill:#c2c8d0;}.cls-15{fill:#85ab6c;}.cls-16{fill:#99c57d;}.cls-17{fill:#d7e2d3;}.cls-18{fill:#b2b2b2;}.cls-19{fill:#5a5a59;}.cls-20{fill:#7b8b9e;}.cls-21{fill:#8799ad;}.cls-22{fill:#779961;}</style></defs><title>basement</title><g id="Layer_2" data-name="Layer 2"><g id="boiler_room" data-name="boiler room"><rect class="cls-1" width="274.37" height="143.29"/><rect class="cls-2" x="14.11" width="247.57" height="130.73"/><rect class="cls-3" x="42.87" y="119.83" width="14.24" height="5.81"/><rect class="cls-3" x="42.87" y="105.52" width="14.24" height="5.81"/><rect class="cls-3" x="58.67" y="105.52" width="14.24" height="5.81"/><rect class="cls-3" x="50.72" y="112.71" width="14.24" height="5.81"/><rect class="cls-3" x="50.72" y="98.33" width="14.24" height="5.81"/><rect class="cls-3" x="43.13" y="91.57" width="14.24" height="5.81"/><rect class="cls-3" x="35.03" y="112.71" width="14.24" height="5.81"/><rect class="cls-4" x="14.11" width="247.57" height="10.15"/><rect class="cls-5" x="14.11" y="125.45" width="247.57" height="5.28"/><path class="cls-5" d="M72.94,98.39V61.07h-3V98.39a5.69,5.69,0,0,0,5.69,5.68H98.94v-3H75.63A2.69,2.69,0,0,1,72.94,98.39Z"/><path class="cls-5" d="M90.44,90.39V10.07h-3V90.39a5.69,5.69,0,0,0,5.69,5.68h9.31v-3H93.13A2.69,2.69,0,0,1,90.44,90.39Z"/><path class="cls-6" d="M162.66,27.25,14.11,15.4v3L162.4,30.24a2.25,2.25,0,0,1,2,2.25v6.58h3V32.49A5.25,5.25,0,0,0,162.66,27.25Z"/><rect class="cls-7" x="164.45" y="35.07" width="3" height="4"/><rect class="cls-5" x="14.11" y="59.62" width="138.33" height="3"/><path class="cls-8" d="M105,32.56V75.07h6V32.56a4.65,4.65,0,0,1,4.78-4.49h32.55v-6H115.73A10.66,10.66,0,0,0,105,32.56Z"/><path class="cls-8" d="M114.78,32.56v42h6v-42a4.66,4.66,0,0,1,4.79-4.49H261.68v-6H125.57A10.66,10.66,0,0,0,114.78,32.56Z"/><rect class="cls-7" x="114.78" y="71.9" width="6" height="2.69"/><rect class="cls-9" x="104.95" y="71.9" width="6" height="2.69"/><rect class="cls-8" x="98.28" y="74.41" width="32.06" height="51.13"/><rect class="cls-10" x="98.28" y="74.41" width="32.06" height="8.67"/><rect class="cls-10" x="98.28" y="116.88" width="32.06" height="8.67"/><rect class="cls-5" x="106.45" y="91.57" width="16" height="7.5"/><path class="cls-8" d="M149.2,39v86.39h33.38V39a86.9,86.9,0,0,0-16.88-2A77.6,77.6,0,0,0,149.2,39Z"/><path class="cls-11" d="M149.2,39v86.39h31.21V39a76.3,76.3,0,0,0-15.79-2A68.1,68.1,0,0,0,149.2,39Z"/><rect class="cls-10" x="149.2" y="120.5" width="33.38" height="5.04"/><path class="cls-10" d="M149.2,39v2.59h33.38V39a86.49,86.49,0,0,0-16.88-2A77.23,77.23,0,0,0,149.2,39Z"/><circle class="cls-5" cx="165.89" cy="108.95" r="7.12"/><circle class="cls-12" cx="165.89" cy="108.95" r="5"/><circle class="cls-13" cx="165.89" cy="62.07" r="4.17"/><path class="cls-5" d="M63.86,59.65a1,1,0,0,0-1,1v9.5a1,1,0,0,0,2,0v-9.5A1,1,0,0,0,63.86,59.65Z"/><path class="cls-7" d="M62.61,69.55H57.88a1.11,1.11,0,0,0,0,2.21h4.73a1.11,1.11,0,0,0,0-2.21Z"/><path class="cls-14" d="M63.86,69.24a1.42,1.42,0,1,0,1.42,1.41A1.41,1.41,0,0,0,63.86,69.24Z"/><path class="cls-5" d="M128.28,51.07a1,1,0,0,0-1,1v9.5a1,1,0,0,0,2,0v-9.5A1,1,0,0,0,128.28,51.07Z"/><path class="cls-7" d="M134.26,50.47h-4.73a1.1,1.1,0,1,0,0,2.2h4.73a1.1,1.1,0,0,0,0-2.2Z"/><path class="cls-14" d="M128.28,50.15a1.42,1.42,0,1,0,1.42,1.42A1.43,1.43,0,0,0,128.28,50.15Z"/><rect class="cls-3" x="201.57" y="40.57" width="14.24" height="5.81"/><rect class="cls-3" x="201.57" y="54.88" width="14.24" height="5.81"/><rect class="cls-3" x="185.78" y="54.88" width="14.24" height="5.81"/><rect class="cls-3" x="193.72" y="47.69" width="14.24" height="5.81"/><rect class="cls-3" x="193.72" y="62.07" width="14.24" height="5.81"/><rect class="cls-3" x="201.32" y="68.83" width="14.24" height="5.81"/><rect class="cls-3" x="209.42" y="47.69" width="14.24" height="5.81"/><path class="cls-15" d="M81.46,82.77a46.62,46.62,0,0,0-10-1.16,45.54,45.54,0,0,0-9.55,1.16,1.59,1.59,0,0,0-1.24,1.56v24.53a1.6,1.6,0,0,0,1.23,1.56,46.76,46.76,0,0,0,10,1.15,45.54,45.54,0,0,0,9.55-1.16,1.6,1.6,0,0,0,1.25-1.56V84.33A1.6,1.6,0,0,0,81.46,82.77Z"/><path class="cls-16" d="M79.38,82.72a39.67,39.67,0,0,0-9-1.11,38.76,38.76,0,0,0-8.6,1.11,1.52,1.52,0,0,0-1.11,1.5V107.8a1.52,1.52,0,0,0,1.11,1.5,39.8,39.8,0,0,0,9,1.1,38.85,38.85,0,0,0,8.6-1.11,1.51,1.51,0,0,0,1.11-1.5V84.22A1.52,1.52,0,0,0,79.38,82.72Z"/><path class="cls-17" d="M82.82,93.78H60.57a.5.5,0,1,0,0,1H82.82a.5.5,0,0,0,0-1Z"/><path class="cls-17" d="M82.82,98.4H60.57a.5.5,0,0,0-.5.5.5.5,0,0,0,.5.5H82.82a.5.5,0,0,0,.5-.5A.5.5,0,0,0,82.82,98.4Z"/><path class="cls-18" d="M193,16.62a3,3,0,0,0,3,3H196v-6H196A3,3,0,0,0,193,16.62Z"/><path class="cls-18" d="M240.07,13.6H240v6h.07a3,3,0,1,0,0-6Z"/><rect class="cls-18" x="195.85" y="13.6" width="44.26" height="2.97"/><path class="cls-11" d="M238.74,17.12H197.3A1.27,1.27,0,0,0,196,18.38h0a1.26,1.26,0,0,0,1.26,1.26h41.44a1.26,1.26,0,0,0,0-2.52Z"/><rect class="cls-18" x="198.14" y="3.75" width="0.38" height="9.85"/><rect class="cls-18" x="237.53" y="3.75" width="0.38" height="9.85"/><path class="cls-11" d="M165.89,45.24a4.17,4.17,0,1,0,4.16,4.16A4.17,4.17,0,0,0,165.89,45.24Z"/><path class="cls-19" d="M165.89,44.74a4.67,4.67,0,1,0,4.66,4.66A4.67,4.67,0,0,0,165.89,44.74Zm0,8.33a3.67,3.67,0,1,1,3.66-3.67A3.67,3.67,0,0,1,165.89,53.07Z"/><circle class="cls-5" cx="165.89" cy="49.4" r="0.94"/><path class="cls-5" d="M167.89,47.77l-2.19,1.34a.35.35,0,0,0,.19.64.31.31,0,0,0,.18,0l2.18-1.33a.35.35,0,1,0-.36-.6Z"/><path class="cls-11" d="M91.31,99.3a3.33,3.33,0,1,0,3.91,2.64A3.33,3.33,0,0,0,91.31,99.3Z"/><path class="cls-19" d="M92,98.74a3.54,3.54,0,0,0-.73.07,3.83,3.83,0,0,0,.72,7.6,4.4,4.4,0,0,0,.73-.07,3.81,3.81,0,0,0,2.45-1.62,3.83,3.83,0,0,0-3.17-6Zm2.34,5.42a2.79,2.79,0,0,1-1.81,1.19,2.83,2.83,0,1,1-1.07-5.56,2.47,2.47,0,0,1,.54-.05,2.83,2.83,0,0,1,2.34,4.42Z"/><path class="cls-5" d="M91.8,101.84a.74.74,0,0,0-.59.87.75.75,0,1,0,.59-.87Z"/><path class="cls-5" d="M90.82,100.82a.35.35,0,0,0-.49,0,.36.36,0,0,0,0,.5l1.38,1.51a.35.35,0,0,0,.49,0,.35.35,0,0,0,0-.49Z"/><rect class="cls-20" x="109.7" y="92.32" width="9.5" height="6"/><polygon class="cls-21" points="109.69 98.32 119.19 92.32 109.69 92.32 109.69 98.32"/><rect class="cls-12" x="114.7" y="75.95" width="6.5" height="2.33"/><rect class="cls-12" x="122.36" y="75.95" width="6.5" height="2.33"/><rect class="cls-12" x="114.7" y="79.2" width="6.5" height="2.33"/><rect class="cls-12" x="122.36" y="79.2" width="6.5" height="2.33"/><path class="cls-7" d="M101.2,76.49a.83.83,0,1,0,0,1.66.83.83,0,1,0,0-1.66Z"/><path class="cls-9" d="M103.86,76.49a.83.83,0,0,0,0,1.66.83.83,0,1,0,0-1.66Z"/><path class="cls-22" d="M106.53,76.49a.83.83,0,1,0,.83.83A.83.83,0,0,0,106.53,76.49Z"/></g></g></svg>