<svg xmlns="http://www.w3.org/2000/svg" viewBox="0 0 219.28 130"><defs><style>.cls-1{fill:#69b5cf;}.cls-2{fill:#7fc0d6;}.cls-3{fill:#3f82a4;}.cls-4{fill:#e2e1eb;}.cls-5{fill:#b2b2b2;}.cls-6{fill:#a4a3a3;}.cls-7{fill:#f1f1f1;}.cls-8{fill:#fff;}.cls-9{fill:#c2dbe4;}.cls-10{fill:#d6e7ed;}.cls-11{fill:#f9fcfc;}.cls-12{fill:#c2e0e3;}.cls-13{fill:#eaf4f5;}.cls-14{fill:#f5fafa;}.cls-15{fill:#e4e4e4;}.cls-16{fill:#ccc;}.cls-17{fill:#9f9cbd;}.cls-18{fill:#e5e5e5;}.cls-19{fill:#dddbeb;}.cls-20{fill:#cdcae2;}.cls-21{fill:#f4f4f9;}.cls-22{fill:#f5f5f9;}.cls-23{fill:#9dc5d4;}.cls-24{fill:#b9d5e0;}.cls-25{fill:#d6d6d6;}.cls-26{fill:#f7f7f7;opacity:0.8;}.cls-27{fill:#a0d1e1;}.cls-28{fill:#e4f3f4;}.cls-29{fill:#5e6a79;}</style></defs><title>Bathroom</title><g id="Layer_2" data-name="Layer 2"><g id="bathroom"><rect class="cls-1" width="219.28" height="130"/><rect class="cls-2" x="1.17" y="6.99" width="12.16" height="12.16" rx="1.26" ry="1.26"/><rect class="cls-2" x="14.4" y="6.99" width="12.16" height="12.16" rx="1.26" ry="1.26"/><rect class="cls-2" x="27.63" y="6.99" width="12.16" height="12.16" rx="1.26" ry="1.26"/><rect class="cls-2" x="40.86" y="6.99" width="12.16" height="12.16" rx="1.26" ry="1.26"/><rect class="cls-2" x="54.09" y="6.99" width="12.16" height="12.16" rx="1.26" ry="1.26"/><rect class="cls-2" x="67.31" y="6.99" width="12.16" height="12.16" rx="1.26" ry="1.26"/><rect class="cls-2" x="80.54" y="6.99" width="12.16" height="12.16" rx="1.26" ry="1.26"/><rect class="cls-2" x="93.77" y="6.99" width="12.16" height="12.16" rx="1.26" ry="1.26"/><rect class="cls-2" x="1.17" y="20.37" width="12.16" height="12.16" rx="1.26" ry="1.26"/><rect class="cls-2" x="14.4" y="20.37" width="12.16" height="12.16" rx="1.26" ry="1.26"/><rect class="cls-2" x="27.63" y="20.37" width="12.16" height="12.16" rx="1.26" ry="1.26"/><rect class="cls-2" x="40.86" y="20.37" width="12.16" height="12.16" rx="1.26" ry="1.26"/><rect class="cls-2" x="54.09" y="20.37" width="12.16" height="12.16" rx="1.26" ry="1.26"/><rect class="cls-2" x="67.31" y="20.37" width="12.16" height="12.16" rx="1.26" ry="1.26"/><rect class="cls-2" x="80.54" y="20.37" width="12.16" height="12.16" rx="1.26" ry="1.26"/><rect class="cls-2" x="93.77" y="20.37" width="12.16" height="12.16" rx="1.26" ry="1.26"/><rect class="cls-2" x="1.17" y="33.74" width="12.16" height="12.16" rx="1.26" ry="1.26"/><rect class="cls-2" x="14.4" y="33.74" width="12.16" height="12.16" rx="1.26" ry="1.26"/><rect class="cls-2" x="27.63" y="33.74" width="12.16" height="12.16" rx="1.26" ry="1.26"/><rect class="cls-2" x="40.86" y="33.74" width="12.16" height="12.16" rx="1.26" ry="1.26"/><rect class="cls-2" x="54.09" y="33.74" width="12.16" height="12.16" rx="1.26" ry="1.26"/><rect class="cls-2" x="67.31" y="33.74" width="12.16" height="12.16" rx="1.26" ry="1.26"/><rect class="cls-2" x="80.54" y="33.74" width="12.16" height="12.16" rx="1.26" ry="1.26"/><rect class="cls-2" x="93.77" y="33.74" width="12.16" height="12.16" rx="1.26" ry="1.26"/><rect class="cls-2" x="1.17" y="47.12" width="12.16" height="12.16" rx="1.26" ry="1.26"/><rect class="cls-2" x="14.4" y="47.12" width="12.16" height="12.16" rx="1.26" ry="1.26"/><rect class="cls-2" x="27.63" y="47.12" width="12.16" height="12.16" rx="1.26" ry="1.26"/><rect class="cls-2" x="40.86" y="47.12" width="12.16" height="12.16" rx="1.26" ry="1.26"/><rect class="cls-2" x="54.09" y="47.12" width="12.16" height="12.16" rx="1.26" ry="1.26"/><rect class="cls-2" x="67.31" y="47.12" width="12.16" height="12.16" rx="1.26" ry="1.26"/><rect class="cls-2" x="80.54" y="47.12" width="12.16" height="12.16" rx="1.26" ry="1.26"/><rect class="cls-2" x="93.77" y="47.12" width="12.16" height="12.16" rx="1.26" ry="1.26"/><rect class="cls-2" x="1.17" y="60.49" width="12.16" height="12.16" rx="1.26" ry="1.26"/><rect class="cls-2" x="14.4" y="60.49" width="12.16" height="12.16" rx="1.26" ry="1.26"/><rect class="cls-2" x="27.63" y="60.49" width="12.16" height="12.16" rx="1.26" ry="1.26"/><rect class="cls-2" x="40.86" y="60.49" width="12.16" height="12.16" rx="1.26" ry="1.26"/><rect class="cls-2" x="54.09" y="60.49" width="12.16" height="12.16" rx="1.26" ry="1.26"/><rect class="cls-2" x="67.31" y="60.49" width="12.16" height="12.16" rx="1.26" ry="1.26"/><rect class="cls-2" x="80.54" y="60.49" width="12.16" height="12.16" rx="1.26" ry="1.26"/><rect class="cls-2" x="93.77" y="60.49" width="12.16" height="12.16" rx="1.26" ry="1.26"/><rect class="cls-2" x="1.17" y="73.87" width="12.16" height="12.16" rx="1.26" ry="1.26"/><rect class="cls-2" x="14.4" y="73.87" width="12.16" height="12.16" rx="1.26" ry="1.26"/><rect class="cls-2" x="27.63" y="73.87" width="12.16" height="12.16" rx="1.26" ry="1.26"/><rect class="cls-2" x="40.86" y="73.87" width="12.16" height="12.16" rx="1.26" ry="1.26"/><rect class="cls-2" x="54.09" y="73.87" width="12.16" height="12.16" rx="1.26" ry="1.26"/><rect class="cls-2" x="67.31" y="73.87" width="12.16" height="12.16" rx="1.26" ry="1.26"/><rect class="cls-2" x="80.54" y="73.87" width="12.16" height="12.16" rx="1.26" ry="1.26"/><rect class="cls-2" x="93.77" y="73.87" width="12.16" height="12.16" rx="1.26" ry="1.26"/><rect class="cls-2" x="1.17" y="87.24" width="12.16" height="12.16" rx="1.26" ry="1.26"/><rect class="cls-2" x="14.4" y="87.24" width="12.16" height="12.16" rx="1.26" ry="1.26"/><rect class="cls-2" x="27.63" y="87.24" width="12.16" height="12.16" rx="1.26" ry="1.26"/><rect class="cls-2" x="40.86" y="87.24" width="12.16" height="12.16" rx="1.26" ry="1.26"/><rect class="cls-2" x="54.09" y="87.24" width="12.16" height="12.16" rx="1.26" ry="1.26"/><rect class="cls-2" x="67.31" y="87.24" width="12.16" height="12.16" rx="1.26" ry="1.26"/><rect class="cls-2" x="80.54" y="87.24" width="12.16" height="12.16" rx="1.26" ry="1.26"/><rect class="cls-2" x="93.77" y="87.24" width="12.16" height="12.16" rx="1.26" ry="1.26"/><rect class="cls-2" x="1.17" y="100.62" width="12.16" height="12.16" rx="1.26" ry="1.26"/><rect class="cls-2" x="14.4" y="100.62" width="12.16" height="12.16" rx="1.26" ry="1.26"/><rect class="cls-2" x="27.63" y="100.62" width="12.16" height="12.16" rx="1.26" ry="1.26"/><rect class="cls-2" x="40.86" y="100.62" width="12.16" height="12.16" rx="1.26" ry="1.26"/><rect class="cls-2" x="54.09" y="100.62" width="12.16" height="12.16" rx="1.26" ry="1.26"/><rect class="cls-2" x="67.31" y="100.62" width="12.16" height="12.16" rx="1.26" ry="1.26"/><rect class="cls-2" x="80.54" y="100.62" width="12.16" height="12.16" rx="1.26" ry="1.26"/><rect class="cls-2" x="93.77" y="100.62" width="12.16" height="12.16" rx="1.26" ry="1.26"/><rect class="cls-2" x="1.17" y="113.99" width="12.16" height="12.16" rx="1.26" ry="1.26"/><rect class="cls-2" x="14.4" y="113.99" width="12.16" height="12.16" rx="1.26" ry="1.26"/><rect class="cls-2" x="27.63" y="113.99" width="12.16" height="12.16" rx="1.26" ry="1.26"/><rect class="cls-2" x="40.86" y="113.99" width="12.16" height="12.16" rx="1.26" ry="1.26"/><rect class="cls-2" x="54.09" y="113.99" width="12.16" height="12.16" rx="1.26" ry="1.26"/><rect class="cls-2" x="67.31" y="113.99" width="12.16" height="12.16" rx="1.26" ry="1.26"/><rect class="cls-2" x="80.54" y="113.99" width="12.16" height="12.16" rx="1.26" ry="1.26"/><rect class="cls-2" x="93.77" y="113.99" width="12.16" height="12.16" rx="1.26" ry="1.26"/><rect class="cls-3" x="106.99" width="112.29" height="130"/><rect class="cls-4" x="152.42" y="83.82" width="54.27" height="41"/><path class="cls-5" d="M183.67,58.82a5,5,0,0,0-5,5v11.5h1.5V63.82a3.5,3.5,0,1,1,7,0v2h1.5v-2A5,5,0,0,0,183.67,58.82Z"/><rect class="cls-6" x="172.01" y="71.09" width="3.08" height="5.15"/><polygon class="cls-5" points="169.09 70.91 175.09 71.57 175.09 70.07 169.09 70.07 169.09 70.91"/><rect class="cls-6" x="184.01" y="71.09" width="3.08" height="5.15"/><polygon class="cls-5" points="184.01 71.57 190.01 70.91 190.01 70.07 184.01 70.07 184.01 71.57"/><path class="cls-7" d="M196.76,74.2H162.34a.79.79,0,0,0-.79.79v1.32A7.66,7.66,0,0,0,169.21,84h20.68a7.66,7.66,0,0,0,7.66-7.66V75A.79.79,0,0,0,196.76,74.2Z"/><path class="cls-8" d="M193.14,74.76h-29.3a.75.75,0,0,0-.75.75h0a7.28,7.28,0,0,0,7.28,7.28h16.25a7.28,7.28,0,0,0,7.28-7.28A.75.75,0,0,0,193.14,74.76Z"/><rect class="cls-9" x="156.55" y="26.65" width="46" height="27.58"/><polygon class="cls-10" points="156.55 54.23 202.55 26.66 156.55 26.66 156.55 54.23"/><path class="cls-8" d="M155,55.73h49V25.15H155Zm3-27.58h43V52.73H158Z"/><rect class="cls-8" x="155.17" y="87.57" width="22.75" height="33.75"/><rect class="cls-8" x="180.42" y="87.57" width="22.75" height="33.75"/><path class="cls-11" d="M135.16,79.07H121.44a2.14,2.14,0,0,0-2.14,2.14v23.53h18V81.21A2.14,2.14,0,0,0,135.16,79.07Z"/><path class="cls-12" d="M119.3,104.74h18V98.37c-6-.05-12-.17-18-.28Z"/><path class="cls-8" d="M138.22,97.24H118.38a1.83,1.83,0,0,0-1.83,1.83H140A1.83,1.83,0,0,0,138.22,97.24Z"/><polygon class="cls-13" points="122.22 110.74 121.22 124.74 135.38 124.74 134.38 110.74 122.22 110.74"/><path class="cls-14" d="M116.67,103.55a8.28,8.28,0,0,0,8.28,8.28h6.7a8.28,8.28,0,0,0,8.28-8.28v-3.47H116.67Z"/><path class="cls-8" d="M117.14,102.31a8.28,8.28,0,0,0,8.28,8.28h4.39a8.28,8.28,0,0,0,8.28-8.28v-1.71H117.14Z"/><path class="cls-15" d="M34.13,72.49A5.55,5.55,0,0,0,28.59,78V93h1.66V78A3.88,3.88,0,0,1,38,78v2.22h1.66V78A5.55,5.55,0,0,0,34.13,72.49Z"/><rect class="cls-16" x="34.5" y="87.19" width="3.41" height="5.71"/><polygon class="cls-15" points="34.5 87.72 41.15 86.99 41.15 86.06 34.5 86.06 34.5 87.72"/><path class="cls-8" d="M42.42,92.74H14.92a181.12,181.12,0,0,0,5.27,24.37c.52,1.73,2.73,7.8,2.73,7.8H84.76s2.22-6.07,2.73-7.8a181.11,181.11,0,0,0,5.27-24.37H42.42Z"/><rect class="cls-17" x="68.01" y="67.74" width="17.33" height="18.67"/><circle class="cls-16" cx="60.59" cy="67.4" r="2.75"/><circle class="cls-16" cx="91.59" cy="67.4" r="2.75"/><path class="cls-18" d="M91.92,66.49H60.76a.92.92,0,0,0,0,1.83H91.92a.92.92,0,1,0,0-1.83Z"/><rect class="cls-19" x="66.34" y="65.96" width="17.33" height="18.94"/><rect class="cls-20" x="66.34" y="81.44" width="17.33" height="3.47"/><rect class="cls-8" x="23.8" y="48.32" width="70.76" height="3"/><rect class="cls-19" x="27.2" y="41.2" width="5.17" height="7.17" rx="0.68" ry="0.68"/><rect class="cls-17" x="27.66" y="42.78" width="4.25" height="4.08"/><path class="cls-19" d="M87.33,45.52H71.8a1.45,1.45,0,1,0,0,2.8H87.33a1.45,1.45,0,1,0,0-2.8Z"/><path class="cls-17" d="M87.33,42.72H71.8A1.64,1.64,0,0,0,70,44.12a1.64,1.64,0,0,0,1.81,1.4H87.33a1.64,1.64,0,0,0,1.81-1.4A1.64,1.64,0,0,0,87.33,42.72Z"/><path class="cls-21" d="M87.33,39.92H71.8A1.64,1.64,0,0,0,70,41.32a1.64,1.64,0,0,0,1.81,1.4H87.33a1.64,1.64,0,0,0,1.81-1.4A1.64,1.64,0,0,0,87.33,39.92Z"/><rect class="cls-8" x="28.37" y="39.74" width="2.83" height="1.5" rx="0.39" ry="0.39"/><rect class="cls-19" x="33.26" y="43.95" width="7.08" height="4.42"/><rect class="cls-17" x="33.26" y="42.45" width="7.08" height="1.5"/><rect class="cls-22" x="35.17" y="44.74" width="5.17" height="3.17"/><circle class="cls-23" cx="62.14" cy="37.15" r="5.42"/><path class="cls-24" d="M58.31,33.32a5.42,5.42,0,0,0,0,7.66L66,33.32A5.42,5.42,0,0,0,58.31,33.32Z"/><path class="cls-25" d="M62.14,31.24a5.92,5.92,0,1,0,5.92,5.92A5.92,5.92,0,0,0,62.14,31.24Zm0,10.83a4.92,4.92,0,1,1,4.92-4.92A4.92,4.92,0,0,1,62.14,42.07Z"/><line class="cls-9" x1="62.14" y1="42.57" x2="62.14" y2="47.45"/><rect class="cls-25" x="61.64" y="42.57" width="1" height="4.88"/><path class="cls-25" d="M65,47.07H59.33a.63.63,0,0,0,0,1.25H65a.63.63,0,0,0,0-1.25Z"/><circle class="cls-26" cx="127.97" cy="36.57" r="9.5"/><circle class="cls-26" cx="127.09" cy="34.95" r="7.37"/><rect class="cls-6" x="123.34" y="25.57" width="9.25" height="2.75"/><rect class="cls-6" x="127.57" y="9.82" width="0.8" height="16"/><path class="cls-4" d="M174.17,89.57h-4.5a1,1,0,0,0,0,2h4.5a1,1,0,0,0,0-2Z"/><path class="cls-4" d="M188.67,89.57h-4.5a1,1,0,0,0,0,2h4.5a1,1,0,0,0,0-2Z"/><path class="cls-19" d="M54.08,43.1H52c-1.79,0-4,1.47-4,3.26h0c0,1.79,1.47,2,3.26,2h3.58c1.79,0,3.26-.18,3.26-2h0C58.08,44.56,55.87,43.1,54.08,43.1Z"/><circle class="cls-17" cx="49.77" cy="46.65" r="0.62"/><circle class="cls-17" cx="51.23" cy="45.23" r="0.65"/><circle class="cls-17" cx="51.88" cy="46.8" r="0.53"/><circle class="cls-17" cx="55.44" cy="45.32" r="0.49" transform="translate(0.87 91.68) rotate(-79.62)"/><circle class="cls-17" cx="56.35" cy="46.68" r="0.52" transform="translate(0.28 93.69) rotate(-79.62)"/><circle class="cls-17" cx="55.01" cy="46.97" r="0.43" transform="translate(-1.1 92.61) rotate(-79.62)"/><rect class="cls-18" x="152.17" y="54.84" width="54.5" height="2.24"/><rect class="cls-17" x="192.82" y="44.35" width="3.23" height="4.88" rx="0.78" ry="0.78"/><polygon class="cls-8" points="194.02 42.63 193.83 44.37 195.04 44.37 194.84 42.63 194.02 42.63"/><path class="cls-8" d="M196.25,46.08l-1.31-.16a.13.13,0,1,0,0,.26l1.31.16a.13.13,0,0,0,0-.26Z"/><path class="cls-8" d="M196.53,43.7l-1.31-.16a.13.13,0,1,0,0,.26l1.31.16a.13.13,0,1,0,0-.26Z"/><path class="cls-8" d="M196.49,44l-1.31-.16a.13.13,0,1,0,0,.26l1.31.16a.13.13,0,0,0,0-.26Z"/><path class="cls-8" d="M196.45,44.38l-1.31-.16a.13.13,0,1,0,0,.26l1.31.16a.13.13,0,0,0,0-.26Z"/><path class="cls-8" d="M196.41,44.72l-1.31-.16a.13.13,0,1,0,0,.26l1.31.16a.13.13,0,0,0,0-.26Z"/><path class="cls-8" d="M196.37,45.06l-1.31-.16a.13.13,0,1,0,0,.26l1.31.16a.13.13,0,1,0,0-.26Z"/><path class="cls-8" d="M196.33,45.4,195,45.24a.13.13,0,1,0,0,.26l1.31.16a.13.13,0,1,0,0-.26Z"/><path class="cls-8" d="M196.29,45.74,195,45.58a.13.13,0,1,0,0,.26l1.31.16a.13.13,0,1,0,0-.26Z"/><path class="cls-20" d="M196.67,43.57s-.07-.06-.11-.06a.31.31,0,0,0-.34.27l-.29,2.41a.29.29,0,0,0,.1.25l-.35,2.9a.26.26,0,1,0,.52.06l.69-5.76C196.89,43.71,196.8,43.6,196.67,43.57Z"/><polygon class="cls-2" points="192.39 54.84 196.88 54.84 197.48 48.02 191.78 48.02 192.39 54.84"/><path class="cls-27" d="M191.78,48l.6,6.82h3a28,28,0,0,1,.42-6.82Z"/><rect class="cls-28" y="124.72" width="219.28" height="5.28"/><rect class="cls-29" width="219.28" height="10.15"/></g></g></svg>