<svg xmlns="http://www.w3.org/2000/svg" xmlns:xlink="http://www.w3.org/1999/xlink" viewBox="0 0 219.28 130"><defs><style>.cls-1{fill:none;}.cls-2{fill:#87c4d8;}.cls-3{fill:#e6dcd1;}.cls-4{fill:#756266;}.cls-5{fill:#f2ede7;}.cls-6{fill:#fdfcfb;}.cls-7{fill:#b3a9ab;}.cls-8{fill:#c2dbe4;}.cls-9{fill:#d9e9ee;}.cls-10{fill:#e1dddb;}.cls-11{opacity:0.2;}.cls-12{clip-path:url(#clip-path);}.cls-13{fill:#80b65d;}.cls-14{fill:#fff;}.cls-15{fill:#eabc45;}.cls-16{fill:#f2edeb;}.cls-17{fill:#5a514e;}.cls-18{fill:#608946;}.cls-19{fill:#918184;}.cls-20{fill:#b3d39e;}.cls-21{fill:#fbfaf9;}.cls-22{fill:#584a4d;}.cls-23{fill:#c9e4ee;}.cls-24{fill:#cab39e;}</style><clipPath id="clip-path"><rect class="cls-1" x="154.9" y="40.08" width="47.69" height="25.33"/></clipPath></defs><title>Bedroom</title><g id="Layer_2" data-name="Layer 2"><g id="bedroom"><rect class="cls-2" width="219.28" height="130"/><path class="cls-3" d="M124.44,76.77H47.22a3.28,3.28,0,0,0-3.28,3.28v33.68h83.79V80.05A3.28,3.28,0,0,0,124.44,76.77Z"/><rect class="cls-4" x="35.2" y="113.64" width="101.26" height="7.14"/><rect class="cls-5" x="37.64" y="101.24" width="96.38" height="12.4" rx="2.13" ry="2.13"/><rect class="cls-4" x="39.05" y="119.65" width="13.81" height="5.07"/><rect class="cls-4" x="118.8" y="119.65" width="13.81" height="5.07"/><path class="cls-6" d="M81.34,83.57a.75.75,0,0,0-.74-.85S69,82.17,65,82.17c-3.5,0-14.48.56-14.48.56a.75.75,0,0,0-.74.86,29.5,29.5,0,0,1,.82,7.18,43,43,0,0,1-.85,9.26.75.75,0,0,0,.75.84H80.6a.75.75,0,0,0,.75-.85,46.27,46.27,0,0,1-.84-8.54A41.47,41.47,0,0,1,81.34,83.57Z"/><path class="cls-6" d="M121.91,83.57a.75.75,0,0,0-.74-.85s-11.58-.56-15.6-.56c-3.5,0-14.48.56-14.48.56a.75.75,0,0,0-.74.86,29.5,29.5,0,0,1,.82,7.18,43,43,0,0,1-.85,9.26.75.75,0,0,0,.75.84h30.11a.75.75,0,0,0,.75-.85,46.27,46.27,0,0,1-.84-8.54A41.47,41.47,0,0,1,121.91,83.57Z"/><path class="cls-7" d="M128,98.65H43.64a2.19,2.19,0,0,0-2.19,2.19v.34h88.77v-.34A2.19,2.19,0,0,0,128,98.65Z"/><rect class="cls-6" x="150.41" y="34.5" width="55.87" height="34.07"/><rect class="cls-8" x="153.57" y="37.71" width="49.54" height="27.65"/><polygon class="cls-9" points="153.57 65.36 203.11 37.71 153.57 37.71 153.57 65.36"/><rect class="cls-6" x="142.82" y="91.05" width="67.94" height="33.67"/><rect class="cls-10" x="142.82" y="94.65" width="67.94" height="1.45"/><rect class="cls-10" x="142.82" y="105.02" width="67.94" height="0.95"/><rect class="cls-10" x="142.82" y="114.9" width="67.94" height="0.95"/><path class="cls-10" d="M182.42,99.48h-13.5a1.08,1.08,0,0,0,0,2.17h13.5a1.08,1.08,0,0,0,0-2.17Z"/><path class="cls-10" d="M182.42,109.36h-13.5a1.08,1.08,0,0,0,0,2.17h13.5a1.08,1.08,0,0,0,0-2.17Z"/><path class="cls-10" d="M182.42,119.24h-13.5a1.08,1.08,0,0,0,0,2.17h13.5a1.08,1.08,0,0,0,0-2.17Z"/><g class="cls-11"><g class="cls-12"><path class="cls-13" d="M189.85,66.6a7.12,7.12,0,0,0-3.15.64,7.37,7.37,0,0,1,2.43,2.49c1,1.7.81,2.19,1.34,2.82s.91.85,1,1.42a15,15,0,0,0,.4,1.85l.57.1S192.24,67.86,189.85,66.6Z"/><path class="cls-14" d="M199.77,63.74c-.92.28-2.18-.05-3.43.23s-1.18,3-1.18,3l1.44.43s3.49-2.61,4.25-2.7.71.15.79.12S200.69,63.46,199.77,63.74Z"/><path class="cls-15" d="M198.55,64.16a13.61,13.61,0,0,0-1.32,1.15l.34.13.8-.8C198.76,64.24,198.66,64.16,198.55,64.16Z"/><path class="cls-16" d="M198.29,65c-1.3.38-1.34,0-2.27.27s-.87,1.73-.87,1.73l1.44.43s3.21-2.21,3.73-2.5a1.33,1.33,0,0,1,.84-.22,2,2,0,0,0-1.09-.37C199.34,64.24,199.59,64.59,198.29,65Z"/><path class="cls-13" d="M195.16,67s-.89,2-1.14,2.65a18.78,18.78,0,0,0-.73,6.74l.34,0a18.51,18.51,0,0,1,.65-6.49c.3-1.17,2.19-2.34,2.33-2.44A1.51,1.51,0,0,0,195.16,67Z"/><path class="cls-14" d="M189.94,59.13c-1.17-.2-2.31.2-3.18,0s-1.75,1.12-1.68,1.16,0-.2.72-.16,4.85,2.66,4.85,2.66l.52-.77S191.1,59.33,189.94,59.13Z"/><path class="cls-15" d="M188.1,59.9l.78.74.31-.15a12.58,12.58,0,0,0-1.28-1C187.81,59.46,187.72,59.55,188.1,59.9Z"/><path class="cls-16" d="M190.29,60.36c-.87-.16-.89.16-2.11-.13s-1-.65-1.69-.55a1.79,1.79,0,0,0-1,.43,1.17,1.17,0,0,1,.79.17c.49.25,4.27,2.41,4.27,2.41l.61-.69S191.16,60.53,190.29,60.36Z"/><path class="cls-13" d="M191.15,61.61a2,2,0,0,0-.9.91,13.75,13.75,0,0,1,1.51,1.86c.16.42,1.21,3.64.75,12l.45,0a101.94,101.94,0,0,0-.38-10.76A14.09,14.09,0,0,0,191.15,61.61Z"/><path class="cls-4" d="M190.85,87.91a.61.61,0,0,0,.61.61h2.19a.61.61,0,0,0,.61-.61v-14h-3.42Z"/><path class="cls-17" d="M191.36,85.6c0,1.08.27,1.31.59,1.31h0c.33,0,.59-.24.59-1.31V74.23h-1.21Z"/></g></g><path class="cls-18" d="M185.71,69.74a6.38,6.38,0,0,0-.4,4.7,1.31,1.31,0,0,1-.16.88,1.14,1.14,0,0,0,.7-.93c0-.64-.05-.54.42-.87a1.36,1.36,0,0,0,.78-1.18c0-.64.43-.17.87-.44A5.52,5.52,0,0,0,185.71,69.74Z"/><path class="cls-13" d="M188.85,69.1a7.12,7.12,0,0,0-3.15.64,7.37,7.37,0,0,1,2.43,2.49c1,1.7.81,2.19,1.34,2.82s.91.85,1,1.42a15,15,0,0,0,.4,1.85l.57.1S191.24,70.36,188.85,69.1Z"/><path class="cls-14" d="M198.77,66.24c-.92.28-2.18-.05-3.43.23s-1.18,3-1.18,3l1.44.43s3.49-2.61,4.25-2.7.71.15.79.12S199.69,66,198.77,66.24Z"/><path class="cls-15" d="M197.55,66.66a13.61,13.61,0,0,0-1.32,1.15l.34.13.8-.8C197.76,66.74,197.66,66.66,197.55,66.66Z"/><path class="cls-16" d="M197.29,67.47c-1.3.38-1.34,0-2.27.27s-.87,1.73-.87,1.73l1.44.43s3.21-2.21,3.73-2.5a1.33,1.33,0,0,1,.84-.22,2,2,0,0,0-1.09-.37C198.34,66.74,198.59,67.09,197.29,67.47Z"/><path class="cls-13" d="M194.16,69.47s-.89,2-1.14,2.65a18.78,18.78,0,0,0-.73,6.74l.34,0a18.51,18.51,0,0,1,.65-6.49c.3-1.17,2.19-2.34,2.33-2.44A1.51,1.51,0,0,0,194.16,69.47Z"/><path class="cls-14" d="M188.94,61.63c-1.17-.2-2.31.2-3.18,0s-1.75,1.12-1.68,1.16,0-.2.72-.16,4.85,2.66,4.85,2.66l.52-.77S190.1,61.83,188.94,61.63Z"/><path class="cls-15" d="M187.1,62.4l.78.74.31-.15a12.58,12.58,0,0,0-1.28-1C186.81,62,186.72,62,187.1,62.4Z"/><path class="cls-16" d="M189.29,62.86c-.87-.16-.89.16-2.11-.13s-1-.65-1.69-.55a1.79,1.79,0,0,0-1,.43,1.17,1.17,0,0,1,.79.17c.49.25,4.27,2.41,4.27,2.41l.61-.69S190.16,63,189.29,62.86Z"/><path class="cls-13" d="M190.15,64.11a2,2,0,0,0-.9.91,13.75,13.75,0,0,1,1.51,1.86c.16.42,1.21,3.64.75,12l.45,0a101.94,101.94,0,0,0-.38-10.76A14.09,14.09,0,0,0,190.15,64.11Z"/><path class="cls-4" d="M189.85,90.41a.61.61,0,0,0,.61.61h2.19a.61.61,0,0,0,.61-.61v-14h-3.42Z"/><path class="cls-19" d="M190.36,88.1c0,1.08.27,1.31.59,1.31h0c.33,0,.59-.24.59-1.31V76.73h-1.21Z"/><path class="cls-14" d="M166.53,78.79a2.8,2.8,0,0,1,0,1.47l.19.06a2.94,2.94,0,0,0,0-1.59Z"/><path class="cls-20" d="M168.4,80.57,167,80.21a1.14,1.14,0,0,0-.58,0l-1.39.37a.62.62,0,0,0-.62.62v7.31H169V81.2A.62.62,0,0,0,168.4,80.57Z"/><path class="cls-14" d="M163,81.6a2.22,2.22,0,0,1,0,1.16l.19.06a2.37,2.37,0,0,0,0-1.28Z"/><path class="cls-5" d="M164.53,83l-1.1-.29a.91.91,0,0,0-.46,0l-1.11.29a.5.5,0,0,0-.5.5v5.84H165V83.52A.5.5,0,0,0,164.53,83Z"/><path class="cls-14" d="M169.48,83.57a1.82,1.82,0,0,1,0,1l.19.06a2,2,0,0,0,0-1.07Z"/><path class="cls-21" d="M170.74,84.74l-.91-.24a.75.75,0,0,0-.39,0l-.92.24a.41.41,0,0,0-.41.41V90h3V85.16A.41.41,0,0,0,170.74,84.74Z"/><path class="cls-4" d="M162.88,91h6.75c1.66,0,7.5-1.34,7.5-3H155.38C155.38,89.68,161.23,91,162.88,91Z"/><rect class="cls-3" x="6.5" y="111.22" width="21.69" height="13.5"/><rect class="cls-6" x="5.84" y="103.53" width="23" height="9.06"/><rect class="cls-6" x="5.84" y="113.7" width="23" height="9.06"/><path class="cls-3" d="M18.58,102.86h-.39a3.33,3.33,0,0,1-2.43-2.09V91h-1v9.81a3.34,3.34,0,0,1-2.46,2.09h-.36a.33.33,0,1,0,0,.67h6.63a.33.33,0,0,0,0-.67Z"/><polygon class="cls-6" points="11.76 83.8 8.76 93.13 21.76 93.13 18.76 83.8 11.76 83.8"/><rect class="cls-4" x="21.01" y="99.74" width="5.42" height="3.79"/><circle class="cls-6" cx="23.74" cy="100.01" r="3.06"/><path class="cls-4" d="M23.74,96.55A3.46,3.46,0,1,0,27.2,100,3.47,3.47,0,0,0,23.74,96.55Zm0,6.13A2.66,2.66,0,1,1,26.4,100,2.67,2.67,0,0,1,23.74,102.67Z"/><polygon class="cls-6" points="23.74 100.01 24.83 99.22 22.24 98.94 23.74 100.01"/><path class="cls-4" d="M24.71,99.05l-1,.71-1.38-1a.2.2,0,0,0-.23.33l1.62,1.16,1.21-.88a.2.2,0,1,0-.23-.32Z"/><rect class="cls-22" y="124.72" width="219.28" height="5.28"/><rect class="cls-23" width="219.28" height="10.15"/><rect class="cls-14" x="45.71" y="36" width="80.25" height="22.25"/><rect class="cls-3" x="45.71" y="36" width="80.25" height="22.25"/><path class="cls-24" d="M48.18,36c-.09,4.83.8,9.71,1.36,14.47l.11.93c.25-2.68.49-5.36.71-8-.26-2.45-.48-4.9-.63-7.36Z"/><path class="cls-24" d="M47.18,36H45.71V58.24H49c.06-.61.11-1.22.17-1.83-.18-2-.4-4-.64-5.95C48,45.71,47.09,40.83,47.18,36Z"/><path class="cls-24" d="M54,36h-1.2c-.21,4.12-.55,8.24-.92,12.35.41,3.3.86,6.6,1.29,9.89h1.62c0-.53,0-1.05,0-1.58q-.14-4.49-.36-9C54.32,44.08,54.57,39.82,54,36Z"/><path class="cls-24" d="M51,58.24h1.21q-.35-2.68-.71-5.37Q51.25,55.56,51,58.24Z"/><path class="cls-24" d="M56,36c.37,3.25.21,6.72.37,9.79q.33,6.23.51,12.45h2C58.57,50.82,58,43.42,57.65,36Z"/><path class="cls-24" d="M60.45,36c.1,6.1.26,12.21.28,18.31.07,1.31.15,2.62.22,3.93h1.29c.19-5.22.36-10.44.64-15.65Q62,39.29,61.14,36Z"/><path class="cls-24" d="M65.84,50.54q.57,2.4,1.12,4.81c.08-6.46.19-12.91.67-19.35h-1.3C66.28,40.85,66.13,45.7,65.84,50.54Z"/><path class="cls-24" d="M65.26,58.24H66.6q-.49-2.14-1-4.29C65.51,55.38,65.4,56.81,65.26,58.24Z"/><path class="cls-24" d="M73.75,50.06c.26-4.69.56-9.38.85-14.07H73.28C73.23,40.69,73.5,45.37,73.75,50.06Z"/><path class="cls-24" d="M73,57.33c-.16-7.11-.83-14.22-.76-21.33H69.64c-.55,7.4-.62,14.82-.7,22.25h4.62a.91.91,0,0,1-.16-.46A.47.47,0,0,1,73,57.33Z"/><path class="cls-24" d="M77.19,36h-.6c-.44,7.22-.93,14.44-1.22,21.67a1,1,0,0,1-.23.58h2.94q0-5.05.06-10.1C77.72,44.1,77.37,40.05,77.19,36Z"/><path class="cls-24" d="M84.39,58.24h.52c-.51-6.88-.85-13.76-1.2-20.65C83.28,44.44,84,51.37,84.39,58.24Z"/><path class="cls-24" d="M82.83,36H80.57c-.37,6.88-.52,13.76-.49,20.65l.18,1.6h3.13C83,50.83,82.18,43.36,82.83,36Z"/><path class="cls-24" d="M86.39,50.24Q86.71,48,87,45.7c.45-3.18.7-6.46,1.14-9.7H85.63C85.87,40.75,86.11,45.49,86.39,50.24Z"/><path class="cls-24" d="M89.2,36c-.41,3-.65,6-1.06,9-.47,3.39-1,6.77-1.43,10.16.07,1,.13,2.05.21,3.08h4.41q.4-2.21.82-4.42c-1-5.93-2-11.86-2.75-17.83Z"/><path class="cls-24" d="M107.76,36c0,2,0,4.09.07,6.13.15.9.3,1.8.43,2.71a62.63,62.63,0,0,0-.15-8.84Z"/><path class="cls-24" d="M107,57.66c.17-5.15-.07-10.29-.2-15.43q-.48-2.78-1.2-5.52c-.25,3.75-.22,7.57-.5,11.25-.26,3.43-.56,6.85-.87,10.27h3.37v-.12A.47.47,0,0,1,107,57.66Z"/><path class="cls-24" d="M111.76,58.24H114c-.28-3.61-.55-7.23-.88-10.84C112.76,51,112.22,54.65,111.76,58.24Z"/><path class="cls-24" d="M110.21,36c.95,7.16.24,14.85-.39,22.25h.94c.7-5.38,1.57-10.85,1.85-16.31-.22-2-.45-4-.72-5.94Z"/><path class="cls-24" d="M113.89,36c.77,5.69,1.28,11.4,1.73,17.12.64-3.83,1.27-7.66,1.81-11.51a53.91,53.91,0,0,1-.82-5.61Z"/><path class="cls-24" d="M118,44.75c-.57,3.69-1.2,7.36-1.8,11a.39.39,0,0,1-.33.35l.16,2.1h1.55c.31-3.06.62-6.11.87-9.17,0-.51-.06-1-.11-1.53C118.26,46.61,118.14,45.68,118,44.75Z"/><path class="cls-24" d="M120.11,36c0,.34-.06.64-.07.86h0c0,1,0,1.91-.06,2.87.78,2.3,1.63,4.59,2.29,6.94q.29-4.77.62-9.55-.19-.57-.44-1.12Z"/><path class="cls-24" d="M119.88,42.39c0,.44,0,.89-.06,1.33.22,1.28.42,2.56.52,3.82.29,3.56.4,7.13.41,10.7h.87c.14-2.69.29-5.37.45-8.05-.17-.85-.35-1.71-.56-2.56C121.07,45.86,120.48,44.12,119.88,42.39Z"/><path class="cls-24" d="M99.84,57.72c0,.17,0,.35,0,.52h2.39c.37-4.06.72-8.12,1-12.19.24-3.31.23-6.71.45-10.06H102.5C101.18,43.17,100.53,50.45,99.84,57.72Z"/><path class="cls-24" d="M97.85,36H96.24c-.73,5-1.63,10-2.56,15q.61,3.63,1.21,7.25h1.18c.68-4.84,1.25-9.7,2-14.53C97.93,41.14,97.81,38.56,97.85,36Z"/><path class="cls-24" d="M98.37,48.6c-.45,3.21-.86,6.43-1.3,9.65h.73q.34-3.62.7-7.23c0-.73-.08-1.45-.11-2.18C98.38,48.75,98.37,48.67,98.37,48.6Z"/><path class="cls-24" d="M93.2,48.11c.74-4,1.45-8.06,2-12.12H91.39C91.9,40.05,92.53,44.08,93.2,48.11Z"/><path class="cls-4" d="M44.21,59.74h83.25V34.5H44.21Zm3-22.25h77.25V56.74H47.21Z"/></g></g></svg>