<svg xmlns="http://www.w3.org/2000/svg" viewBox="0 0 247.95 130.91"><defs><style>.cls-1{fill:#756a63;}.cls-2{fill:#e3d8cd;}.cls-3{fill:#cab39f;}.cls-4{fill:#3c3c3b;}.cls-5{fill:#c6c6c5;}.cls-6{fill:#b0b0b0;}.cls-7{fill:#ec6444;}.cls-8{fill:#7ca371;}.cls-9{fill:#585756;}.cls-10{fill:#8d8d8b;}.cls-11{fill:#ede6df;}.cls-12{fill:#b9997e;}.cls-13{fill:#8b735f;}.cls-14{fill:#231f20;opacity:0.2;}.cls-15{fill:#58595b;}.cls-16{fill:#64874c;}.cls-17{fill:#88a274;}.cls-18{fill:#353537;}.cls-19{fill:#d1d3d4;}.cls-20{fill:#808285;}.cls-21{fill:#9eb898;}.cls-22{fill:#eacaa6;}.cls-23{fill:#414042;}.cls-24{fill:#ffe76b;}.cls-25{fill:#e6e7e8;}.cls-26{fill:#e1d4c8;}.cls-27{fill:#989fac;}.cls-28{fill:#4d4541;}.cls-29{opacity:0.15;}.cls-30{fill:#ee7a5f;}.cls-31{fill:#8f8b83;}.cls-32{fill:#504845;}.cls-33{fill:#f5b1a2;}.cls-34{fill:#fff;}.cls-35{fill:#b2b2b2;}.cls-36{fill:#b0c6cf;}.cls-37{fill:#dceaef;opacity:0.7;}.cls-38{fill:#484642;}.cls-39{fill:#dbdad7;}.cls-40{fill:#e9e8e6;}.cls-41{fill:#706f6f;}.cls-42{fill:#575755;}.cls-43{fill:#c4aa93;}.cls-44{fill:#9e8268;}.cls-45{fill:#d9c8b9;}</style></defs><title>Garage</title><g id="Layer_2" data-name="Layer 2"><g id="garage"><rect class="cls-1" width="247.95" height="130.45"/><rect class="cls-2" x="142.43" y="0.46" width="105.53" height="130.45"/><rect class="cls-3" y="28.44" width="142.45" height="4.33"/><path class="cls-4" d="M116.46,19.72l-.23.29a2.58,2.58,0,0,1,.83,1.87c0,1.48-1,3.24-3.11,5.08l.25.28c2.2-2,3.29-3.76,3.24-5.38A2.9,2.9,0,0,0,116.46,19.72Z"/><path class="cls-5" d="M123,34.29A13.9,13.9,0,0,0,107.62,46.5a.52.52,0,0,0,.46.58h.06a.52.52,0,0,0,.52-.46A12.83,12.83,0,0,1,129.39,38a.52.52,0,1,0,.65-.82A13.83,13.83,0,0,0,123,34.29Z"/><path class="cls-5" d="M87.55,37.22a13.86,13.86,0,0,0-17.27,0,.52.52,0,1,0,.65.82,12.84,12.84,0,0,1,20.74,8.58.52.52,0,0,0,.52.46h.06a.52.52,0,0,0,.46-.58A13.79,13.79,0,0,0,87.55,37.22Z"/><polygon class="cls-6" points="80.17 48.03 90.39 44.31 90.21 43.82 90.1 43.85 79.91 47.56 87.91 40.07 87.55 39.68 87.47 39.76 79.61 47.12 84.21 37.26 83.73 37.04 79.09 46.96 79.45 36.01 78.92 36 78.92 36.11 78.57 46.87 74.85 36.65 74.36 36.83 74.39 36.93 78.1 47.12 70.61 39.13 70.22 39.49 70.3 39.57 77.66 47.43 67.8 42.83 67.58 43.3 77.5 47.94 66.55 47.58 66.54 48.11 66.65 48.11 77.41 48.47 67.18 52.18 67.36 52.68 67.47 52.64 77.66 48.94 69.66 56.42 70.03 56.81 70.11 56.73 77.97 49.38 73.36 59.23 73.84 59.46 78.48 49.53 78.12 60.48 78.65 60.5 78.65 60.39 79.01 49.63 82.72 59.85 83.22 59.67 83.18 59.56 79.48 49.37 86.97 57.37 87.35 57.01 87.28 56.93 79.92 49.07 89.77 53.67 90 53.19 80.07 48.55 91.02 48.91 91.04 48.39 90.92 48.38 80.17 48.03"/><polygon class="cls-6" points="122.92 48.03 133.14 44.31 132.96 43.82 132.86 43.85 122.66 47.56 130.66 40.07 130.3 39.68 130.22 39.76 122.36 47.12 126.96 37.26 126.48 37.04 121.85 46.96 122.21 36.01 121.68 36 121.67 36.11 121.32 46.87 117.61 36.65 117.11 36.83 117.15 36.93 120.85 47.12 113.36 39.13 112.97 39.49 113.05 39.57 120.41 47.43 110.55 42.83 110.33 43.3 120.26 47.94 109.31 47.58 109.29 48.11 109.4 48.11 120.16 48.47 109.94 52.18 110.12 52.68 110.22 52.64 120.42 48.94 112.42 56.42 112.78 56.81 112.86 56.73 120.72 49.38 116.12 59.23 116.6 59.46 121.23 49.53 120.87 60.48 121.4 60.5 121.41 60.39 121.76 49.63 125.47 59.85 125.97 59.67 125.93 59.56 122.23 49.37 129.72 57.37 130.1 57.01 130.03 56.93 122.67 49.07 132.53 53.67 132.75 53.19 122.82 48.55 133.77 48.91 133.79 48.39 133.68 48.38 122.92 48.03"/><path class="cls-4" d="M78.73,34.84A13.36,13.36,0,1,0,92.09,48.19,13.37,13.37,0,0,0,78.73,34.84Zm0,25.3A11.94,11.94,0,1,1,90.67,48.19,12,12,0,0,1,78.73,60.14Z"/><path class="cls-4" d="M123,35.11a13.36,13.36,0,1,0,11.75,14.79A13.37,13.37,0,0,0,123,35.11Zm10.34,14.63a11.94,11.94,0,1,1-10.5-13.22A12,12,0,0,1,133.35,49.74Z"/><polygon class="cls-7" points="79.94 46.94 92.83 31.52 92.05 30.91 78.79 46.81 79.71 48.78 97.03 48.69 97.04 47.7 80.34 47.8 79.94 46.94"/><polygon class="cls-7" points="91.8 30.63 91.8 32.05 113.85 32.05 114.03 32.49 99.77 44.61 100.73 45.64 115.73 32.84 114.78 30.63 91.8 30.63"/><path class="cls-4" d="M115.9,18.19a1.66,1.66,0,0,0-1.14-.13l.18,1.26.12,0a.41.41,0,0,1,.23,0,.36.36,0,0,1,.13.21c.12.41-.58.95-1,1.3l-.23.18-.25.19a2.12,2.12,0,0,0-1,2.44l.42,2.93a.64.64,0,0,0,.56.54h.16a.64.64,0,0,0,.54-.72l-.43-2.94c-.13-.79,0-.89.46-1.22l.3-.22.21-.16c.69-.53,1.85-1.42,1.49-2.67A1.55,1.55,0,0,0,115.9,18.19Z"/><path class="cls-4" d="M91.06,26.12a.5.5,0,1,0-.95.29l2.07,7a.5.5,0,0,0,.95-.29Z"/><path class="cls-4" d="M78.68,46.14a2.19,2.19,0,1,0,2.19,2.19A2.2,2.2,0,0,0,78.68,46.14Zm0,3.4a1.2,1.2,0,1,1,1.2-1.2A1.2,1.2,0,0,1,78.68,49.54Z"/><path class="cls-4" d="M78,46.34a.5.5,0,0,0,.09,1h.09l19.47-2.88a3,3,0,0,1-.3-1Z"/><path class="cls-4" d="M78.73,49.49a.5.5,0,0,0-.1,1l17.85,1.38a3,3,0,0,1-.23-1Z"/><path class="cls-7" d="M117.62,39l-3-13.36-1.37.35,3.29,14.34a14.11,14.11,0,0,0,1.64,3.86l2.8,4.72,1.21-.74-2.3-3.84A20.2,20.2,0,0,1,117.62,39Z"/><rect class="cls-7" x="92.96" y="29.7" width="1.42" height="14.49" transform="matrix(0.96, -0.28, 0.28, 0.96, -6.58, 27.54)"/><circle class="cls-5" cx="97.32" cy="47.77" r="4.41"/><path class="cls-4" d="M98.15,54.57l-3.54-.19a.45.45,0,0,0-.05.91l3.54.19a.45.45,0,1,0,0-.91Z"/><path class="cls-8" d="M95.58,23.53a67.19,67.19,0,0,1-7.82.46c-1.52-.14-1.72.84-1.6,1.14l.46,1.76c.11.28,1.47,1.39,3.48.2l5.79-2.67A.49.49,0,0,0,95.58,23.53Z"/><circle class="cls-9" cx="121.52" cy="48.39" r="1.2" transform="translate(59.61 163.61) rotate(-83.46)"/><circle class="cls-9" cx="78.68" cy="48.34" r="1.7"/><path class="cls-10" d="M97.4,47.22a.55.55,0,0,0-.62.47l-1,7.16a.55.55,0,0,0,.47.62h.07a.55.55,0,0,0,.55-.48l1-7.16A.55.55,0,0,0,97.4,47.22Z"/><polygon class="cls-5" points="113.99 30.63 113.85 32.05 116.99 32.05 116.72 30.63 113.99 30.63"/><path class="cls-5" d="M118.76,29.49l-1.53.12a1.46,1.46,0,1,0,.23,2.91l1.53-.12a.3.3,0,0,0,.28-.32l-.18-2.31A.3.3,0,0,0,118.76,29.49Z"/><path class="cls-5" d="M115,17.77l-3.4-.74a.95.95,0,0,0-.4,1.85l3.4.74a.95.95,0,0,0,.4-1.85Z"/><rect class="cls-5" x="73.1" y="32.05" width="14.81" height="1.01" rx="0.33" ry="0.33"/><rect class="cls-5" x="86.37" y="31.92" width="1.1" height="4.01" transform="translate(2.66 74.02) rotate(-46.76)"/><rect class="cls-4" x="95.57" y="29.71" width="1.31" height="3.05"/><rect class="cls-4" x="109.2" y="29.71" width="1.31" height="3.05"/><rect class="cls-11" width="247.95" height="12.99"/><rect class="cls-12" x="150.14" y="17.36" width="93.25" height="51.02"/><circle class="cls-13" cx="156.56" cy="22.74" r="0.87"/><circle class="cls-13" cx="164.6" cy="22.74" r="0.87"/><circle class="cls-13" cx="172.64" cy="22.74" r="0.87"/><circle class="cls-13" cx="180.68" cy="22.74" r="0.87"/><circle class="cls-13" cx="188.72" cy="22.74" r="0.87"/><circle class="cls-13" cx="196.77" cy="22.74" r="0.87"/><circle class="cls-13" cx="204.81" cy="22.74" r="0.87"/><circle class="cls-13" cx="212.85" cy="22.74" r="0.87"/><circle class="cls-13" cx="220.89" cy="22.74" r="0.87"/><circle class="cls-13" cx="228.93" cy="22.74" r="0.87"/><circle class="cls-13" cx="236.97" cy="22.74" r="0.87"/><circle class="cls-13" cx="156.56" cy="29.45" r="0.87"/><circle class="cls-13" cx="164.6" cy="29.45" r="0.87"/><circle class="cls-13" cx="172.64" cy="29.45" r="0.87"/><circle class="cls-13" cx="180.68" cy="29.45" r="0.87"/><circle class="cls-13" cx="188.72" cy="29.45" r="0.87"/><circle class="cls-13" cx="196.77" cy="29.45" r="0.87"/><circle class="cls-13" cx="204.81" cy="29.45" r="0.87"/><circle class="cls-13" cx="212.85" cy="29.45" r="0.87"/><circle class="cls-13" cx="220.89" cy="29.45" r="0.87"/><circle class="cls-13" cx="228.93" cy="29.45" r="0.87"/><circle class="cls-13" cx="236.97" cy="29.45" r="0.87"/><circle class="cls-13" cx="156.56" cy="36.16" r="0.87"/><circle class="cls-13" cx="164.6" cy="36.16" r="0.87"/><circle class="cls-13" cx="172.64" cy="36.16" r="0.87"/><circle class="cls-13" cx="180.68" cy="36.16" r="0.87"/><circle class="cls-13" cx="188.72" cy="36.16" r="0.87"/><circle class="cls-13" cx="196.77" cy="36.16" r="0.87"/><circle class="cls-13" cx="204.81" cy="36.16" r="0.87"/><circle class="cls-13" cx="212.85" cy="36.16" r="0.87"/><circle class="cls-13" cx="220.89" cy="36.16" r="0.87"/><circle class="cls-13" cx="228.93" cy="36.16" r="0.87"/><circle class="cls-13" cx="236.97" cy="36.16" r="0.87"/><circle class="cls-13" cx="156.56" cy="42.86" r="0.87"/><circle class="cls-13" cx="164.6" cy="42.86" r="0.87"/><circle class="cls-13" cx="172.64" cy="42.86" r="0.87"/><circle class="cls-13" cx="180.68" cy="42.86" r="0.87"/><circle class="cls-13" cx="188.72" cy="42.86" r="0.87"/><circle class="cls-13" cx="196.77" cy="42.86" r="0.87"/><circle class="cls-13" cx="204.81" cy="42.86" r="0.87"/><circle class="cls-13" cx="212.85" cy="42.86" r="0.87"/><circle class="cls-13" cx="220.89" cy="42.86" r="0.87"/><circle class="cls-13" cx="228.93" cy="42.86" r="0.87"/><circle class="cls-13" cx="236.97" cy="42.86" r="0.87"/><circle class="cls-13" cx="156.56" cy="49.57" r="0.87"/><circle class="cls-13" cx="164.6" cy="49.57" r="0.87"/><circle class="cls-13" cx="172.64" cy="49.57" r="0.87"/><circle class="cls-13" cx="180.68" cy="49.57" r="0.87"/><circle class="cls-13" cx="188.72" cy="49.57" r="0.87"/><circle class="cls-13" cx="196.77" cy="49.57" r="0.87"/><circle class="cls-13" cx="204.81" cy="49.57" r="0.87"/><circle class="cls-13" cx="212.85" cy="49.57" r="0.87"/><circle class="cls-13" cx="220.89" cy="49.57" r="0.87"/><circle class="cls-13" cx="228.93" cy="49.57" r="0.87"/><circle class="cls-13" cx="236.97" cy="49.57" r="0.87"/><circle class="cls-13" cx="156.56" cy="56.28" r="0.87"/><circle class="cls-13" cx="164.6" cy="56.28" r="0.87"/><circle class="cls-13" cx="172.64" cy="56.28" r="0.87"/><circle class="cls-13" cx="180.68" cy="56.28" r="0.87"/><circle class="cls-13" cx="188.72" cy="56.28" r="0.87"/><circle class="cls-13" cx="196.77" cy="56.28" r="0.87"/><circle class="cls-13" cx="204.81" cy="56.28" r="0.87"/><circle class="cls-13" cx="212.85" cy="56.28" r="0.87"/><circle class="cls-13" cx="220.89" cy="56.28" r="0.87"/><circle class="cls-13" cx="228.93" cy="56.28" r="0.87"/><circle class="cls-13" cx="236.97" cy="56.28" r="0.87"/><circle class="cls-13" cx="156.56" cy="62.99" r="0.87"/><circle class="cls-13" cx="164.6" cy="62.99" r="0.87"/><circle class="cls-13" cx="172.64" cy="62.99" r="0.87"/><circle class="cls-13" cx="180.68" cy="62.99" r="0.87"/><circle class="cls-13" cx="188.72" cy="62.99" r="0.87"/><circle class="cls-13" cx="196.77" cy="62.99" r="0.87"/><circle class="cls-13" cx="204.81" cy="62.99" r="0.87"/><circle class="cls-13" cx="212.85" cy="62.99" r="0.87"/><circle class="cls-13" cx="220.89" cy="62.99" r="0.87"/><circle class="cls-13" cx="228.93" cy="62.99" r="0.87"/><circle class="cls-13" cx="236.97" cy="62.99" r="0.87"/><polygon class="cls-14" points="180.37 31.66 180.39 31.51 180.37 31.66 180.37 31.66"/><path class="cls-14" d="M180.42,31.31v0Z"/><polygon class="cls-14" points="180.96 31.63 180.97 31.58 180.96 31.63 180.96 31.63"/><path class="cls-15" d="M170.45,35.15l.8.15s.47.06.54-.31c0,0-.05-1.76.77-2.16l-3-.39Z"/><path class="cls-16" d="M164.34,32.36s1.87.31,1,2.25a22.41,22.41,0,0,0-2.39,5.68s-.1,1.18-1.14,1.13c0,0-.94-.11-1.07.62l-.55,3s-.19,1.07.51,1.2l8.9,1.61s.56.13.77-1l.35-1.92s0-2.17-3-2.73c0,0-1.42-.38-.67-1.58s1.16-1.57,1.29-2.15.38-2.58.93-2.6,1,.15,1.07-.13l.55-1.94s.2-1.13.69-1.07l-7.35-.89Z"/><path class="cls-15" d="M164.19,31.87l.14.49s1.87.31,1,2.25a23.43,23.43,0,0,0-2.2,4.93h.18l.37,0,.28,0a3.06,3.06,0,0,0,.4-.12l.19-.11,0,0h0l.09-.1.06-.1c.08-.14.15-.27.21-.42.14-.31.26-.62.38-.93.25-.66.55-1.29.79-1.95l.08-.23.07-.24c0-.15.08-.31.12-.47s.06-.31.08-.47,0-.16,0-.24V34a11.06,11.06,0,0,0-.08-1.86Z"/><path class="cls-17" d="M162.13,29.07A2.6,2.6,0,0,0,164.41,32l8.94,1,.6-5.17-8.94-1A2.6,2.6,0,0,0,162.13,29.07Z"/><rect class="cls-18" x="171.32" y="30.08" width="5.23" height="0.74" transform="translate(123.05 199.54) rotate(-83.18)"/><polygon class="cls-18" points="174 33.09 176.48 32.78 176.95 28.86 174.62 27.89 174 33.09"/><rect class="cls-18" x="175.65" y="30.19" width="3.26" height="1.3" transform="translate(125.6 203.2) rotate(-83.18)"/><path class="cls-19" d="M179.51,29.92a1,1,0,0,0-.46-.2l-1-.12-.31,2.62,1,.12a1,1,0,0,0,.49-.09c.35-.22.93-.55.93-.55l.06-.51.06-.51S179.79,30.22,179.51,29.92Z"/><rect class="cls-20" x="180.3" y="30.94" width="0.43" height="0.58" transform="translate(128.04 206.74) rotate(-83.17)"/><path class="cls-20" d="M180.65,31.15l0,.23c0,.31.5.31.5.31l.61-.18v-.23l-.55-.32S180.69,30.84,180.65,31.15Z"/><path class="cls-21" d="M171.75,28.56l-6.67-.8a.92.92,0,0,0-.22,1.83l6.67.8a.92.92,0,0,0,.22-1.83Z"/><path class="cls-18" d="M160.07,45.66a.9.9,0,0,0,.73,1.05l8.39,1.52a.9.9,0,0,0,1.05-.73l.35-2L160.42,43.7Z"/><circle class="cls-22" cx="164.83" cy="33.09" r="0.52"/><circle class="cls-22" cx="172.57" cy="33.61" r="0.52"/><circle class="cls-22" cx="167.04" cy="48.39" r="0.52"/><path class="cls-23" d="M217.83,38.4c-.21-1.73-.14-6.71-.14-6.71h-1.81s.09,5-.11,6.71-.09,5.31-.1,6.67-.23,4.75-.23,4.75l.54.34h1.71l.53-.35s-.24-3.39-.26-4.75S218,40.14,217.83,38.4Z"/><path class="cls-24" d="M217.83,38.37h-2.07c-.2,1.74-.09,5.34-.1,6.71s-.23,4.78-.23,4.78l.54.35h1.72l.54-.35s-.24-3.41-.26-4.78S218,40.11,217.83,38.37Z"/><path class="cls-25" d="M218.32,27.8h-2.23a1.18,1.18,0,0,0-.65.31,1.57,1.57,0,0,1-1.68,0v0a.23.23,0,0,0-.23-.22h-1.44a.23.23,0,0,0-.23.22v1.85a.23.23,0,0,0,.23.22h1.44a.23.23,0,0,0,.23-.22v0a2,2,0,0,1,1.68,0v1.36c0,.53.63.7.63.7h1.32a.63.63,0,0,0,.69-.49V31c-.1-2,.74-1.74.74-1.74A2.71,2.71,0,0,1,221.3,31h.28A3.44,3.44,0,0,0,218.32,27.8Z"/><rect class="cls-15" x="207.66" y="39.52" width="0.74" height="1.06"/><rect class="cls-15" x="208.91" y="39.52" width="0.74" height="1.06"/><path class="cls-7" d="M208.42,40.06h-.93s-.07,0-.14.32a42.28,42.28,0,0,0-1.2,6.78,13.77,13.77,0,0,0,.54,4.59s.2.52.61.36.35-.66.31-.94a22,22,0,0,1-.1-4.24,35.75,35.75,0,0,1,1-6.5S208.58,40,208.42,40.06Z"/><path class="cls-7" d="M209.77,40.06h-.93c-.16,0-.06.38-.06.38a35.74,35.74,0,0,1,1,6.5,22,22,0,0,1-.1,4.24c0,.28-.1.78.31.94s.61-.36.61-.36a13.77,13.77,0,0,0,.54-4.59,42.29,42.29,0,0,0-1.2-6.78C209.83,40,209.77,40.06,209.77,40.06Z"/><path class="cls-19" d="M207.53,36.43l-.08,1,.34.07.82-.34V35.25l0-.06a.06.06,0,0,0,0-.08h0a.06.06,0,0,0-.08,0l0-.08a.06.06,0,0,0,0-.08v0a.06.06,0,0,0-.08,0h0l0-.09h0a.06.06,0,0,0,.06-.07v0a.06.06,0,0,0-.07-.06h0v0s0,0,0-.05h0a.06.06,0,0,0,.06-.06v0a.06.06,0,0,0-.05-.07h0l0-.09h0a.06.06,0,0,0,.06,0v0a.06.06,0,0,0,0-.08l0-.08h0a.06.06,0,0,0,.05,0h0a.06.06,0,0,0,0-.09l0,0V33h-.24Z"/><polygon class="cls-19" points="208.81 39 208.81 39.63 209.02 39.85 209.79 39.49 209.79 38.49 209.57 38.36 208.81 39"/><path class="cls-19" d="M207.57,38.45l-.06,0v1l.77.36.21-.22v-.46a1.11,1.11,0,0,1-.61-.27A1.16,1.16,0,0,1,207.57,38.45Z"/><path class="cls-19" d="M208.94,33h-.24v.94l0,0a.06.06,0,0,0,0,.08h0a.06.06,0,0,0,.05,0h0l0,.08a.06.06,0,0,0,0,.08v0a.06.06,0,0,0,.06,0h0l0,.09a.06.06,0,0,0,0,.07v0a.06.06,0,0,0,.06.06s0,.06,0,.09a.06.06,0,0,0-.06.06v0a.06.06,0,0,0,0,.07l0,.09a.06.06,0,0,0-.07,0v0a.06.06,0,0,0,0,.08h0l0,.07a.06.06,0,0,0-.08,0h0a.06.06,0,0,0,0,.08l0,.06v1.62h.09a1.09,1.09,0,0,1,.93.59l.14,0-.08-1Z"/><path class="cls-19" d="M208.7,36.94h0a1.09,1.09,0,0,0-.19,2.16l.19,0a1.09,1.09,0,0,0,0-2.18Z"/><path class="cls-19" d="M228.26,31.72a5.37,5.37,0,0,0-1.31-1.86c-.22-.13-.17,0-.17,0s.31,1.27.35,1.55-.06.41-.06.41a1.6,1.6,0,0,1-1.46.38.68.68,0,0,1-.53-.38l-.34-1.16c-.11-.34-.21-.25-.21-.25a5.52,5.52,0,0,0-.21,1.63,1.39,1.39,0,0,0,.47,1.11h0a4.05,4.05,0,0,1,.84,1.76V49.24a11.33,11.33,0,0,1-.55,2.51,1.44,1.44,0,0,0-.16.66,1.48,1.48,0,0,0,3,0,1.44,1.44,0,0,0-.15-.65,9.91,9.91,0,0,1-.55-2.52l0-14.28a2.92,2.92,0,0,1,.23-1.06c.19-.27.63-1.13.63-1.13h0A1.71,1.71,0,0,0,228.26,31.72Zm-.95,20.06a.14.14,0,0,0-.05.18l0,0a.14.14,0,0,0,.13.08h0a1.05,1.05,0,0,1,.05.28.14.14,0,0,0-.14.12v0a.14.14,0,0,0,.1.15,1.07,1.07,0,0,1-.11.26.14.14,0,0,0-.19,0l0,0a.14.14,0,0,0,0,.19,1.09,1.09,0,0,1-.24.16.14.14,0,0,0-.17-.08h0a.14.14,0,0,0-.1.16l-.17,0h-.12a.14.14,0,0,0-.1-.15h0a.14.14,0,0,0-.17.09,1.1,1.1,0,0,1-.24-.15.14.14,0,0,0,0-.19l0,0a.14.14,0,0,0-.19,0,1.07,1.07,0,0,1-.12-.26.14.14,0,0,0,.1-.16v0a.14.14,0,0,0-.15-.12v0a1.05,1.05,0,0,1,0-.27h0a.14.14,0,0,0,.13-.09l0,0a.14.14,0,0,0-.06-.18,1.09,1.09,0,0,1,.19-.22.14.14,0,0,0,.11.05l.08,0,0,0a.14.14,0,0,0,0-.18,1.1,1.1,0,0,1,.27-.09.14.14,0,0,0,.14.12h.06v0a.14.14,0,0,0,.13-.13,1.11,1.11,0,0,1,.28.07.14.14,0,0,0,.06.18l0,0,.08,0a.14.14,0,0,0,.11-.06A1.09,1.09,0,0,1,227.31,51.79Z"/><path class="cls-19" d="M234.56,33.69a6.2,6.2,0,0,0-1.51-2.15c-.25-.15-.2,0-.2,0s.35,1.47.41,1.8-.07.47-.07.47a1.84,1.84,0,0,1-1.68.44.78.78,0,0,1-.61-.44l-.39-1.34c-.12-.39-.24-.29-.24-.29a6.37,6.37,0,0,0-.24,1.88,1.6,1.6,0,0,0,.55,1.28h0a4.68,4.68,0,0,1,1,2V53.92a13.1,13.1,0,0,1-.63,2.9,1.66,1.66,0,0,0-.18.76,1.71,1.71,0,0,0,3.42,0,1.66,1.66,0,0,0-.18-.75,11.45,11.45,0,0,1-.64-2.91l0-16.5a3.37,3.37,0,0,1,.26-1.22c.22-.32.73-1.31.73-1.31h0A2,2,0,0,0,234.56,33.69Zm-1.09,23.18a.16.16,0,0,0-.06.21l0,.05a.16.16,0,0,0,.15.09h.05a1.22,1.22,0,0,1,.06.33.16.16,0,0,0-.16.14v.06a.16.16,0,0,0,.12.18,1.23,1.23,0,0,1-.13.3.16.16,0,0,0-.21,0l0,0a.16.16,0,0,0,0,.22,1.27,1.27,0,0,1-.28.18.16.16,0,0,0-.2-.09l-.05,0a.16.16,0,0,0-.11.19l-.2,0h-.14a.16.16,0,0,0-.12-.18h-.06a.16.16,0,0,0-.2.1,1.27,1.27,0,0,1-.28-.17.16.16,0,0,0,0-.22l0,0a.16.16,0,0,0-.22,0,1.24,1.24,0,0,1-.14-.3.16.16,0,0,0,.11-.18v-.06a.16.16,0,0,0-.17-.14v0a1.22,1.22,0,0,1,0-.31h0a.16.16,0,0,0,.15-.1l0-.05a.16.16,0,0,0-.07-.21,1.26,1.26,0,0,1,.21-.25.16.16,0,0,0,.12.06.16.16,0,0,0,.09,0l0,0a.16.16,0,0,0,.06-.21,1.27,1.27,0,0,1,.32-.1.16.16,0,0,0,.16.14h.07v0a.16.16,0,0,0,.16-.15,1.28,1.28,0,0,1,.32.08.16.16,0,0,0,.06.21l0,0,.09,0a.16.16,0,0,0,.13-.06A1.26,1.26,0,0,1,233.47,56.87Z"/><path class="cls-26" d="M197.52,55.65l0-.29,0-.5a2.3,2.3,0,0,0-.06-.39,1,1,0,0,0-.09-.24l0-.06v0h-6.64v0l0,.06a1,1,0,0,0-.09.24,2.34,2.34,0,0,0-.06.39l0,.5,0,.29V56c0,.19,0,.39,0,.6s0,.47,0,.71,0,.49,0,.73,0,.49,0,.73,0,.48,0,.71,0,.45,0,.66,0,.41,0,.6c0,.74,0,1.23,0,1.23h0v0l.13-.27.13.27v0h0v0l.08-.18.08.18v0h0v0l.13-.18L191,62v0h0v0l.06-.12.1.13v0h0v0l.12-.2,0,.16V62h0v0l.08-.19.09.19v0h.12V61.9l.13-.64.18.67V62h0v0l.08-.14.08.14v0h.17v0l.05-.16,0,.12V62h0v0l.06,0h0v0l.1-.12.08.11v0h.14v-.05l.05-.18.06.19v0h0l.16-.13V62h.13v0l.12-.19V62h0v-.09s0,.09,0,.09h.12v0l.09-.19.07.19v0h.24v0l.1-.13.06.12v0h0l.09-.09.05.08v0h0v-.2s0-.09,0-.08.06.1.07.18V62h.13v-.05l.1-.35.06.32V62H195v0l.09-.12V62h0l.1-.1.08.1v0h.12v0l.05-.11.05.11v0h.17l.09-.08.06.08v0h0l.18-.1.13.1h.12l.1-.09.06.09v0h0l.1,0,.05,0h0l.1-.06.06.05h0v0l.05-.09.13.11h0l.09-.07.06.06h0l.13-.08.13.08h0s0-.49,0-1.23c0-.18,0-.38,0-.59s0-.43,0-.66,0-.47,0-.71,0-.49,0-.73v-.73c0-.24,0-.48,0-.71s0-.45,0-.66Zm-6.92-1.31,0,.18s0,0,0,0a1.14,1.14,0,0,1,0-.23Zm6.69.15,0-.24a1.17,1.17,0,0,1,0,.23,2.73,2.73,0,0,1,0,.3C197.31,54.68,197.3,54.58,197.29,54.5Z"/><path class="cls-19" d="M197.48,53.46a.17.17,0,0,0-.13-.16v-2a.1.1,0,0,0-.11-.1h-6.61a.1.1,0,0,0-.11.1v2a.16.16,0,0,0,0,.32v.32a.17.17,0,0,0-.13.16.18.18,0,0,0,.18.18h6.72a.18.18,0,0,0,.18-.18.17.17,0,0,0-.13-.16v-.32A.17.17,0,0,0,197.48,53.46Z"/><circle class="cls-27" cx="195.52" cy="51.84" r="0.31"/><circle class="cls-27" cx="192.36" cy="51.84" r="0.31"/><path class="cls-16" d="M194.7,46.45c.19-1.54.47-5,.47-5.87a20.14,20.14,0,0,0-.34-2.89s-.11-.36-.88-.36h0c-.77,0-.88.36-.88.36a23.68,23.68,0,0,0-.28,2.89c0,.83.21,4.2.41,5.87a4.42,4.42,0,0,1-.8,3.54,3.28,3.28,0,0,1-2,.9v.37h7.05V50.9a3.27,3.27,0,0,1-2-.9A4.05,4.05,0,0,1,194.7,46.45Zm-.76-6.5a.5.5,0,1,1,.5-.5A.5.5,0,0,1,193.94,39.95Z"/><rect class="cls-22" x="187.17" y="41.92" width="51.56" height="1.89"/><rect class="cls-12" x="14.76" y="38.86" width="24.67" height="4.75"/><polygon class="cls-12" points="9.88 126.73 14.13 126.62 18.29 30.73 14.04 30.84 9.88 126.73"/><polygon class="cls-12" points="35.61 30.73 39.78 126.62 44.03 126.73 39.86 30.84 35.61 30.73"/><rect class="cls-12" x="15.26" y="52.71" width="23.27" height="3.5"/><rect class="cls-12" x="15.26" y="65.31" width="23.27" height="3.5"/><rect class="cls-12" x="15.26" y="77.91" width="23.27" height="3.5"/><rect class="cls-12" x="15.26" y="90.51" width="23.27" height="3.5"/><rect class="cls-12" x="13.47" y="103.11" width="27.75" height="3.5"/><rect class="cls-28" y="125.17" width="247.95" height="5.28"/><rect class="cls-7" x="160.14" y="84.26" width="30.5" height="36"/><rect class="cls-29" x="160.14" y="84.26" width="30.5" height="3.9"/><rect class="cls-30" x="159.39" y="84.26" width="32" height="3.23"/><path class="cls-31" d="M164.65,123.37a2.07,2.07,0,0,0,2.07-2.07v-1.16h-2.07Z"/><path class="cls-31" d="M163.88,121a2.13,2.13,0,0,0-2.13,2.13,2.14,2.14,0,0,0,4.26,0A2.13,2.13,0,0,0,163.88,121Z"/><circle class="cls-32" cx="163.88" cy="123.1" r="1.6"/><path class="cls-31" d="M184.06,121.29a2.07,2.07,0,0,0,2.07,2.07v-3.23h-2.07Z"/><path class="cls-31" d="M186.9,121a2.13,2.13,0,0,0-2.13,2.13,2.14,2.14,0,0,0,4.26,0A2.13,2.13,0,0,0,186.9,121Z"/><circle class="cls-32" cx="186.9" cy="123.1" r="1.6"/><rect class="cls-33" x="161.97" y="89.51" width="26.83" height="8.33"/><rect class="cls-33" x="161.97" y="99.51" width="26.83" height="8.33"/><rect class="cls-33" x="161.97" y="109.51" width="26.83" height="8.33"/><path class="cls-34" d="M177.31,92.59h-3.83a1.08,1.08,0,0,0,0,2.17h3.83a1.08,1.08,0,0,0,0-2.17Z"/><path class="cls-34" d="M177.31,102.59h-3.83a1.08,1.08,0,0,0,0,2.17h3.83a1.08,1.08,0,0,0,0-2.17Z"/><path class="cls-34" d="M177.31,112.59h-3.83a1.08,1.08,0,0,0,0,2.17h3.83a1.08,1.08,0,0,0,0-2.17Z"/><path class="cls-35" d="M11.9,19.41a3,3,0,0,0,3,3H15v-6h-.07A3,3,0,0,0,11.9,19.41Z"/><path class="cls-35" d="M59,16.39h-.07v6H59a3,3,0,0,0,0-6Z"/><rect class="cls-35" x="14.8" y="16.39" width="44.26" height="2.97"/><path class="cls-34" d="M57.68,19.9H16.25A1.26,1.26,0,0,0,15,21.17h0a1.26,1.26,0,0,0,1.26,1.26H57.68a1.26,1.26,0,0,0,0-2.52Z"/><rect class="cls-35" x="17.08" y="12.86" width="0.38" height="3.53"/><rect class="cls-35" x="56.47" y="12.86" width="0.38" height="3.53"/><path class="cls-34" d="M141,90.2c-2.65-1.51-24.15-6.31-24.15-6.31s-21-18-38.71-19S37.7,65.33,31,66.72,19.65,79.43,17,84.48c-.52,1-7.07,6.14-9.59,19.78a14.89,14.89,0,0,0,5.68,14.6l136.76,0,2.36-9.51s-3.91-12-4.67-13.13A26.14,26.14,0,0,0,141,90.2Z"/><path class="cls-36" d="M35.47,69.12s-3.91.13-9.09,12.25l84.9,3.28S93.67,70.89,86.72,69.24,63.62,65.71,35.47,69.12Z"/><path class="cls-37" d="M26.38,81.36l6.47.25c5.6-4.95,11.24-9.89,17.55-13.91-4.55.3-9.51.76-14.93,1.42C35.47,69.12,31.56,69.24,26.38,81.36Z"/><path class="cls-37" d="M55.43,67.42c2.36,1.67,3.2,5.72,0,7.74-.69.43-1.37.88-2,1.34a5,5,0,0,1-.64,5.88l3.25.13a4.67,4.67,0,0,1,1-.62c9.52-4.31,19-8.75,28.57-12.9C80.18,67.86,70.42,66.75,55.43,67.42Z"/><path class="cls-37" d="M97.66,78.16c-3.5,2-7.11,3.78-10.72,5.54l24.34.94s-5.14-4-11-8Z"/><path class="cls-38" d="M86.84,68.75c-3.23-.76-10.46-2-22.65-2a241.55,241.55,0,0,0-28.74,1.9c-.43,0-4.38.49-9.54,12.55a.51.51,0,0,0,.44.7l84.9,3.28h0a.5.5,0,0,0,.31-.9C110.87,83.68,93.81,70.4,86.84,68.75ZM27.14,80.89C31.9,70,35.46,69.62,35.53,69.62a241.12,241.12,0,0,1,28.66-1.9c12.09,0,19.24,1.26,22.42,2,5.69,1.35,19,11.2,23.1,14.34Z"/><polygon class="cls-38" points="102.25 84.27 110.58 84.39 102.88 78.71 102.25 84.27"/><path class="cls-39" d="M104.57,85l-.13-.1L57.88,83.09l0,1,46.22,1.81c.46.47,2.25,2.66,2.11,8.08,0,.73,0,1.51,0,2.33-.1,6.16-.25,15.48-3.45,16.92-1,.46-8.53,1.13-47.25.39h0v1q17.37.33,28.48.33c11.57,0,18-.27,19.21-.81,3.77-1.7,3.92-10.64,4-17.81,0-.82,0-1.6,0-2.32C107.34,87.26,104.69,85.1,104.57,85Z"/><path class="cls-32" d="M142.31,112.44a3,3,0,0,0,3,3h5.49l1.52-5.93h-7A3,3,0,0,0,142.31,112.44Z"/><path class="cls-40" d="M146.79,95.18a12.08,12.08,0,0,0-5.54-3.59c-4.29.76,3.28,7.07,4.8,7.45a2.76,2.76,0,0,0,2.43-.43l-.32-1A6.69,6.69,0,0,0,146.79,95.18Z"/><path class="cls-32" d="M100.48,84.14l.8-3.53a4.55,4.55,0,0,0-3.11-1.85c-2.19-.34-4.54-.17-4.8,1.85s.51,3.7,1.6,3.7a2.56,2.56,0,0,1,1.51.34l1.85,3.7s5,2.1,4.54-.67Z"/><circle class="cls-4" cx="122.51" cy="113.37" r="11.8"/><circle class="cls-41" cx="122.51" cy="113.37" r="8.58"/><polygon class="cls-32" points="52.51 67.6 50.11 82.25 57.6 82.71 57.31 67.22 52.51 67.6"/><path class="cls-4" d="M26.73,101.66a11.75,11.75,0,1,0,11.75,11.75A11.75,11.75,0,0,0,26.73,101.66Z"/><circle class="cls-42" cx="26.74" cy="113.41" r="8.5"/><path class="cls-41" d="M26.73,104.22a9.19,9.19,0,1,0,9.2,9.19A9.2,9.2,0,0,0,26.73,104.22ZM35,112.16l-5.48.91a2.43,2.43,0,0,1,.06.51,2.87,2.87,0,0,1,0,.38l5.43.9a8.33,8.33,0,0,1-1.43,3.41l-4.42-3.16a2.88,2.88,0,0,1-.63.66l3.15,4.41a8.33,8.33,0,0,1-3.4,1.46l-.89-5.35a2.42,2.42,0,0,1-.54.06,2.53,2.53,0,0,1-.39,0l-.9,5.37a8.32,8.32,0,0,1-3.5-1.36l3.2-4.48a2.74,2.74,0,0,1-.67-.66L20,118.41a8.33,8.33,0,0,1-1.53-3.5l5.58-.93c0-.14,0-.27,0-.4a2.88,2.88,0,0,1,.06-.54l-5.63-.93a8.32,8.32,0,0,1,1.46-3.57l4.7,3.35a2.61,2.61,0,0,1,.65-.62l-3.36-4.71a8.32,8.32,0,0,1,3.56-1.43l1,5.71a2.43,2.43,0,0,1,.37,0,2.46,2.46,0,0,1,.51.06l.95-5.68a8.33,8.33,0,0,1,3.47,1.53l-3.3,4.63a2.76,2.76,0,0,1,.61.62l4.59-3.28A8.32,8.32,0,0,1,35,112.16Z"/><circle class="cls-41" cx="26.74" cy="113.41" r="3.38"/><path class="cls-4" d="M122.61,101.66a11.75,11.75,0,1,0,11.75,11.75A11.75,11.75,0,0,0,122.61,101.66Z"/><circle class="cls-42" cx="122.61" cy="113.41" r="9"/><path class="cls-41" d="M122.61,104.22a9.19,9.19,0,1,0,9.2,9.19A9.2,9.2,0,0,0,122.61,104.22Zm8.28,7.94-5.48.91a2.44,2.44,0,0,1,.06.51,2.88,2.88,0,0,1,0,.38l5.43.9a8.33,8.33,0,0,1-1.43,3.41L125,115.12a2.88,2.88,0,0,1-.63.66l3.15,4.41a8.33,8.33,0,0,1-3.4,1.46l-.89-5.35a2.42,2.42,0,0,1-.54.06,2.53,2.53,0,0,1-.39,0l-.9,5.37a8.32,8.32,0,0,1-3.5-1.36l3.2-4.48a2.74,2.74,0,0,1-.67-.66l-4.52,3.23a8.33,8.33,0,0,1-1.53-3.5L120,114c0-.14,0-.27,0-.4A2.88,2.88,0,0,1,120,113l-5.63-.93a8.32,8.32,0,0,1,1.46-3.57l4.7,3.35a2.61,2.61,0,0,1,.65-.62l-3.36-4.71a8.32,8.32,0,0,1,3.56-1.43l1,5.71a2.43,2.43,0,0,1,.37,0,2.46,2.46,0,0,1,.51.06l.95-5.68a8.33,8.33,0,0,1,3.47,1.53l-3.3,4.63a2.76,2.76,0,0,1,.61.62l4.59-3.28A8.32,8.32,0,0,1,130.88,112.16Z"/><circle class="cls-41" cx="122.61" cy="113.41" r="3.38"/><path class="cls-40" d="M14.09,91H12.14l-1,1.81-.87,2,3.86-.07a1.89,1.89,0,0,0,0-3.77Z"/><path class="cls-7" d="M12.3,95.86l-2.49,0L9.1,97.69l-.62,2,3.86-.07a1.89,1.89,0,0,0,0-3.77Z"/><path class="cls-39" d="M25.9,81.26l-.16.22a17.81,17.81,0,0,0-2.36,6.07,2.54,2.54,0,0,0,1.68,3c3.63,1.24,12.32,4.84,14.61,11.65a41.74,41.74,0,0,1,2.17,9.29,2.91,2.91,0,0,0,2.77,2.64l11.5.43,1.81-31.49L26.17,81.28Zm31,2.74-1.69,29.51-10.52-.4a1.9,1.9,0,0,1-1.81-1.73,42.72,42.72,0,0,0-2.22-9.51c-2.43-7.23-11.47-11-15.24-12.28a1.56,1.56,0,0,1-1-1.81,19.31,19.31,0,0,1,2.05-5.49Z"/><path class="cls-39" d="M69,90.18l-8.82-.44C64.29,92.09,69,90.18,69,90.18Z"/><path class="cls-39" d="M68.61,86.94,61,86.63a1.22,1.22,0,0,0-1.22,1.17l0,.88A1.22,1.22,0,0,0,60.89,90l7.58.31h0a1.22,1.22,0,0,0,1.22-1.17l0-.89a1.22,1.22,0,0,0-1.17-1.27Zm.53,2.13a.62.62,0,0,1-.62.6V90l0-.3-7.58-.31a.62.62,0,0,1-.59-.64l0-.89a.62.62,0,0,1,.64-.59h0l7.58.31a.62.62,0,0,1,.59.64Z"/><path class="cls-39" d="M37.11,88.28l-8.81-.65C32.38,90.08,37.11,88.28,37.11,88.28Z"/><path class="cls-39" d="M36.82,85l-7.57-.49h-.08a1.22,1.22,0,0,0-1.22,1.14l-.06.88A1.22,1.22,0,0,0,29,87.86l7.57.49h.08a1.22,1.22,0,0,0,1.22-1.14l.06-.88A1.22,1.22,0,0,0,36.82,85Zm.48,2.14a.62.62,0,0,1-.62.58v.3l0-.3-7.58-.49a.61.61,0,0,1-.43-.21.62.62,0,0,1-.15-.45l.06-.88a.63.63,0,0,1,.66-.58h0l7.58.49a.61.61,0,0,1,.43.21.62.62,0,0,1,.15.45Z"/><path class="cls-34" d="M21.89,69.36c.25.83,1.75,2.08.08,5.58l10-8.5-9.67,1.25A2.08,2.08,0,0,0,21.89,69.36Z"/><path class="cls-34" d="M228.07,60.5h-3.65a3.1,3.1,0,0,0-3.28,2.87v2.35H223V63.37c0-.57.67-1.05,1.46-1.05h3.65c.79,0,1.46.48,1.46,1.05v2.35h1.81V63.37A3.1,3.1,0,0,0,228.07,60.5Z"/><rect class="cls-7" x="213.02" y="65.41" width="26.44" height="12.09"/><rect class="cls-29" x="213.02" y="65.41" width="26.44" height="4.9"/><polygon class="cls-30" points="213.02 65.41 212.02 69.59 240.47 69.59 239.47 65.41 213.02 65.41"/><rect class="cls-43" x="196.45" y="78.13" width="51.5" height="47.04"/><rect class="cls-29" x="196.45" y="78.13" width="51.5" height="5.74"/><rect class="cls-44" x="196.45" y="77.5" width="51.5" height="5.66"/><rect class="cls-45" x="198.76" y="86.45" width="47.64" height="10.51"/><rect class="cls-45" x="198.76" y="99.07" width="47.64" height="10.51"/><rect class="cls-45" x="198.76" y="111.68" width="47.64" height="10.51"/><path class="cls-44" d="M218.33,93.33h8.5a1.75,1.75,0,0,0,1.75-1.75h-12A1.75,1.75,0,0,0,218.33,93.33Z"/><path class="cls-44" d="M218.33,105.95h8.5a1.75,1.75,0,0,0,1.75-1.75h-12A1.75,1.75,0,0,0,218.33,105.95Z"/><path class="cls-44" d="M218.33,118.57h8.5a1.75,1.75,0,0,0,1.75-1.75h-12A1.75,1.75,0,0,0,218.33,118.57Z"/></g></g></svg>