<svg xmlns="http://www.w3.org/2000/svg" xmlns:xlink="http://www.w3.org/1999/xlink" viewBox="0 0 219.28 130"><defs><style>.cls-1{fill:none;}.cls-2{fill:#fadc8f;}.cls-3{fill:#2c2527;}.cls-4{fill:#584a4d;}.cls-5{fill:#eb5e4a;}.cls-6{fill:#ffefc6;}.cls-7{fill:#f2ede6;}.cls-31,.cls-8{fill:#fff;}.cls-9{fill:#2e2d2c;opacity:0.1;}.cls-10{fill:#796e71;}.cls-11{fill:#bcb7b8;}.cls-12{fill:#73945e;}.cls-13{fill:#d6d1cb;}.cls-14{fill:#99c57d;}.cls-15{fill:#add197;}.cls-16{fill:#f8f5f2;}.cls-17{fill:#e6dcd1;}.cls-18{fill:#ada59d;}.cls-19{fill:gray;}.cls-20{fill:#ccc;}.cls-21{fill:#575756;}.cls-22{fill:#9d9d9c;}.cls-23{fill:#ef7e6f;}.cls-24{fill:#646363;}.cls-25{fill:#dbecee;}.cls-26{clip-path:url(#clip-path);}.cls-27{fill:#8fced2;}.cls-28{fill:#b3d39e;}.cls-29,.cls-33{opacity:0.8;}.cls-30{fill:#566f47;}.cls-31{opacity:0.3;}.cls-32{fill:#756266;}.cls-33{fill:#e1dddb;}.cls-34{fill:#e2e2e2;}.cls-35{fill:#6c6c6c;}.cls-36{fill:#bcbcbc;}.cls-37{fill:#ececec;}.cls-38{fill:#e0e0df;}.cls-39{fill:#91ba83;}</style><clipPath id="clip-path"><rect class="cls-1" x="119.67" y="27.91" width="37.08" height="51.66"/></clipPath></defs><title>Workspace</title><g id="Layer_2" data-name="Layer 2"><g id="studio"><rect class="cls-2" width="219.28" height="130"/><rect class="cls-3" x="59.39" y="105.79" width="3.31" height="7.49"/><path class="cls-4" d="M72.77,119.43,61,116.78v3.5l13.1,1.47v-.62A1.73,1.73,0,0,0,72.77,119.43Z"/><path class="cls-4" d="M72.53,122a1.61,1.61,0,0,0,1.61,1.61v-2.51H72.53Z"/><path class="cls-4" d="M74.74,121.79a1.66,1.66,0,0,0-1.66,1.66,1.66,1.66,0,0,0,3.31,0A1.66,1.66,0,0,0,74.74,121.79Z"/><circle class="cls-3" cx="74.74" cy="123.45" r="1.24"/><path class="cls-4" d="M47.9,121.13v.62L61,120.28v-3.5l-11.73,2.65A1.73,1.73,0,0,0,47.9,121.13Z"/><path class="cls-4" d="M47.9,123.63A1.61,1.61,0,0,0,49.51,122v-.9H47.9Z"/><path class="cls-4" d="M47.3,121.79a1.66,1.66,0,0,0-1.66,1.66,1.66,1.66,0,0,0,3.31,0A1.66,1.66,0,0,0,47.3,121.79Z"/><circle class="cls-3" cx="47.3" cy="123.45" r="1.24"/><rect class="cls-4" x="58.83" y="112.09" width="4.32" height="8.37" rx="1.88" ry="1.88"/><path class="cls-4" d="M52.17,105.79H69.22A1.75,1.75,0,0,0,71,104H50.42A1.75,1.75,0,0,0,52.17,105.79Z"/><path class="cls-5" d="M66.23,100.41H54.74c-2,0-4.32,1.63-4.32,3.63H71C71,102,68.24,100.41,66.23,100.41Z"/><rect class="cls-4" x="59.8" y="118.43" width="2.4" height="4.19"/><rect class="cls-3" x="60.22" y="121.79" width="1.55" height="2.9"/><path class="cls-4" d="M61.77,121.79V125a.71.71,0,0,0,.72-.74v-1.65A.78.78,0,0,0,61.77,121.79Z"/><path class="cls-4" d="M59.5,122.62v1.65a.71.71,0,0,0,.72.74v-3.22A.78.78,0,0,0,59.5,122.62Z"/><rect class="cls-4" y="124.72" width="219.28" height="5.28"/><rect class="cls-6" width="219.28" height="10.15"/><path class="cls-5" d="M73.73,77.48H63.64a4.35,4.35,0,0,0-4.35,4.35v9.36H78.08V81.83A4.35,4.35,0,0,0,73.73,77.48Z"/><rect class="cls-7" x="25.58" y="92.95" width="36.28" height="5.21"/><rect class="cls-8" x="22.61" y="92.95" width="4.25" height="31.75"/><rect class="cls-9" x="22.61" y="92.95" width="4.25" height="0.96"/><rect class="cls-8" x="61.86" y="92.95" width="42.16" height="31.75"/><rect class="cls-9" x="61.86" y="92.95" width="42.16" height="1.12"/><rect class="cls-8" x="18.17" y="88.02" width="90.27" height="5.23" rx="1.64" ry="1.64"/><rect class="cls-10" x="29.91" y="63.2" width="27.87" height="20.37" rx="1.47" ry="1.47"/><path class="cls-11" d="M45.92,73.79H41.78a.67.67,0,0,0-.66.63l-1.06,12.9a.67.67,0,0,0,.67.7H47a.67.67,0,0,0,.66-.7l-1.06-12.9A.67.67,0,0,0,45.92,73.79Z"/><path class="cls-11" d="M76.43,86.48H52A.77.77,0,1,0,52,88H76.43a.77.77,0,1,0,0-1.55Z"/><rect class="cls-12" x="93.63" y="86.57" width="6.79" height="1.45"/><path class="cls-4" d="M98.74,84.68a.75.75,0,0,0-.76.74v1.15H99.5V85.42A.75.75,0,0,0,98.74,84.68Z"/><rect class="cls-12" x="91.71" y="64.16" width="2.09" height="2.09" rx="0.4" ry="0.4" transform="translate(-11.61 109.51) rotate(-58.11)"/><path class="cls-4" d="M94.53,66.49H92.08a.61.61,0,0,0,0,1.22h2.45a.61.61,0,0,0,0-1.22Z"/><path class="cls-4" d="M95.33,66.78h-1a.27.27,0,0,0-.19.47l.72.69a.27.27,0,0,0,.44-.09l.3-.69A.27.27,0,0,0,95.33,66.78Z"/><path class="cls-4" d="M94.67,67.68l8.75,7.67.7-.8-8.75-7.67Zm9,6.9-.3.34L95.1,67.65l.3-.34Z"/><path class="cls-4" d="M98.19,85.21l1,.46,5-10.53-1-.46Zm5.51-9.92L99,85.26l-.41-.2,4.69-10Z"/><circle class="cls-4" cx="103.4" cy="74.88" r="0.92"/><path class="cls-12" d="M92.63,64.92c-1.1-.44-4.36.79-5.29,2.74a.16.16,0,0,0,.09.22L92.74,70a.16.16,0,0,0,.22-.09C93.72,67.93,93.72,65.37,92.63,64.92Z"/><rect class="cls-8" x="168.92" y="26.94" width="40.69" height="13.51" rx="1.54" ry="1.54"/><path class="cls-7" d="M168.92,39.21a1.24,1.24,0,0,0,1.24,1.24h38.21a1.24,1.24,0,0,0,1.24-1.24V35.91H168.92Z"/><rect class="cls-13" x="170.88" y="37.4" width="30.17" height="1.57"/><rect class="cls-13" x="202.53" y="37.4" width="5.13" height="1.57"/><path class="cls-14" d="M175.8,78.91c2.64-3.69,0-9.74,0-9.74C173.16,76.17,175.8,78.91,175.8,78.91Z"/><path class="cls-12" d="M175.61,79.72c1.19-4.38-3.6-9.95-3.6-9.95C172,77.26,175.61,79.72,175.61,79.72Z"/><path class="cls-15" d="M175.55,79.72s3.63-2.46,3.6-9.95C179.15,69.78,174.37,75.34,175.55,79.72Z"/><path class="cls-12" d="M169.76,78.4s.23-2.44,1.94-3l-2.19-.43A6.54,6.54,0,0,0,169.76,78.4Z"/><path class="cls-14" d="M171.62,74s-1.82.28-2.11.88c0,0,4,3,5.48,5.95C175,80.87,173.94,74.18,171.62,74Z"/><path class="cls-12" d="M179.39,75.36c1.72.61,2,3,2,3a6.12,6.12,0,0,0,.19-3.48Z"/><path class="cls-14" d="M179.47,74c-2.32.14-3.37,6.83-3.37,6.83,1.46-3,5.49-5.95,5.49-5.95C181.29,74.32,179.47,74,179.47,74Z"/><path class="cls-7" d="M172.13,86.54A1.85,1.85,0,0,0,174,88.13h3.68a1.85,1.85,0,0,0,1.83-1.59l1.15-8.05H171Z"/><path class="cls-16" d="M172,85.71a1.66,1.66,0,0,0,1.64,1.42h3.3a1.66,1.66,0,0,0,1.64-1.42l1-7.22H171Z"/><path class="cls-8" d="M180.58,78.4H171a.45.45,0,1,0,0,.91h9.56a.45.45,0,1,0,0-.91Z"/><rect class="cls-7" x="115.97" y="88.2" width="97.72" height="36.5"/><rect class="cls-17" x="115.97" y="88.2" width="97.72" height="4.71"/><rect class="cls-18" x="118.83" y="95.55" width="45" height="26.18"/><rect class="cls-8" x="166.31" y="95.55" width="45" height="26.18"/><rect class="cls-14" x="119.32" y="104.48" width="4.87" height="17.05"/><rect class="cls-8" x="119.32" y="110.65" width="4.87" height="8.77"/><circle class="cls-19" cx="121.76" cy="116.12" r="1.08"/><path class="cls-20" d="M121.76,114.84a1.28,1.28,0,1,0,1.28,1.28A1.28,1.28,0,0,0,121.76,114.84Zm0,2.16a.88.88,0,1,1,.88-.88A.88.88,0,0,1,121.76,117Z"/><rect class="cls-5" x="125.27" y="104.48" width="4.87" height="17.05"/><rect class="cls-8" x="125.27" y="110.65" width="4.87" height="8.77"/><circle class="cls-19" cx="127.71" cy="116.12" r="1.08"/><path class="cls-20" d="M127.71,114.84a1.28,1.28,0,1,0,1.28,1.28A1.28,1.28,0,0,0,127.71,114.84Zm0,2.16a.88.88,0,1,1,.88-.88A.88.88,0,0,1,127.71,117Z"/><rect class="cls-12" x="131.23" y="104.48" width="4.87" height="17.05"/><rect class="cls-8" x="131.23" y="110.65" width="4.87" height="8.77"/><circle class="cls-19" cx="133.66" cy="116.12" r="1.08"/><path class="cls-20" d="M133.66,114.84a1.28,1.28,0,1,0,1.28,1.28A1.28,1.28,0,0,0,133.66,114.84Zm0,2.16a.88.88,0,1,1,.88-.88A.88.88,0,0,1,133.66,117Z"/><path class="cls-21" d="M119.12,121.73h5.28V104.28h-5.28Zm.41-17H124v16.64h-4.46Z"/><path class="cls-21" d="M125.07,121.73h5.28V104.28h-5.28Zm.41-17h4.46v16.64h-4.46Z"/><path class="cls-21" d="M131,121.73h5.28V104.28H131Zm.41-17h4.46v16.64h-4.46Z"/><rect class="cls-22" x="137.99" y="104.08" width="4.87" height="17.05" transform="translate(-19.55 30.1) rotate(-11.44)"/><rect class="cls-8" x="138.39" y="110.21" width="4.87" height="8.77" transform="translate(-19.94 30.22) rotate(-11.44)"/><circle class="cls-19" cx="141.04" cy="115.65" r="1.08" transform="translate(-20.14 30.27) rotate(-11.44)"/><path class="cls-20" d="M140.79,114.4a1.28,1.28,0,0,0,.25,2.54l.26,0a1.28,1.28,0,0,0-.51-2.51Zm.43,2.11a.88.88,0,0,1-.35-1.72l.17,0a.88.88,0,0,1,.17,1.73Z"/><path class="cls-21" d="M136.11,104.57l3.46,17.1,5.17-1-3.46-17.1Zm3.78,16.63-3.3-16.31L141,104l3.3,16.31Z"/><rect class="cls-5" x="189.34" y="74.38" width="10.97" height="13.75"/><rect class="cls-8" x="190.51" y="75.84" width="8.63" height="10.82"/><rect class="cls-22" x="192.55" y="78.4" width="4.54" height="5.69"/><rect class="cls-12" x="199.11" y="79.08" width="11.48" height="9.16"/><rect class="cls-8" x="200.33" y="80.06" width="9.03" height="7.2"/><rect class="cls-22" x="202.47" y="81.76" width="4.75" height="3.79"/><rect class="cls-8" x="24.92" y="42.39" width="47.24" height="3.07"/><rect class="cls-5" x="28.62" y="35.22" width="13.8" height="7.16"/><rect class="cls-23" x="28.15" y="33.69" width="14.74" height="1.84"/><rect class="cls-8" x="31.4" y="37.61" width="8.24" height="2.92"/><path class="cls-24" d="M31.23,40.69h8.58V37.45H31.23Zm.34-2.92h7.89v2.6H31.57Z"/><rect class="cls-10" x="31.08" y="29.08" width="8.88" height="4.61"/><rect class="cls-11" x="30.77" y="28.1" width="9.49" height="1.19"/><rect class="cls-8" x="32.06" y="31.39" width="2.95" height="1.64"/><path class="cls-24" d="M31.89,33.19h3.29v-2H31.89Zm.34-1.64h2.61v1.33H32.23Z"/><rect class="cls-10" x="46.13" y="37.77" width="21.74" height="4.61"/><rect class="cls-14" x="47.52" y="35.8" width="17.81" height="1.97"/><rect class="cls-5" x="61.95" y="37.77" width="4.32" height="4.61"/><rect class="cls-14" x="147.92" y="107.11" width="2.34" height="14.62"/><rect class="cls-8" x="147.92" y="118.56" width="2.34" height="1.97"/><rect class="cls-14" x="150.83" y="107.11" width="2.34" height="14.62"/><rect class="cls-8" x="150.83" y="118.56" width="2.34" height="1.97"/><rect class="cls-14" x="153.76" y="107.11" width="2.34" height="14.62"/><rect class="cls-8" x="153.76" y="118.56" width="2.34" height="1.97"/><rect class="cls-14" x="156.68" y="107.11" width="2.34" height="14.62"/><rect class="cls-8" x="156.68" y="118.56" width="2.34" height="1.97"/><rect class="cls-5" x="159.61" y="107.11" width="2.34" height="14.62"/><rect class="cls-8" x="159.61" y="118.56" width="2.34" height="1.97"/><rect class="cls-8" x="114.64" y="88.2" width="100.37" height="4.1" rx="0.67" ry="0.67"/><rect class="cls-25" x="119.67" y="27.91" width="37.08" height="40.83"/><g class="cls-26"><rect class="cls-14" x="104.46" y="60.9" width="83.13" height="21.42"/><path class="cls-27" d="M104.46,67.57h15.26c41.81,0,68-6.67,68-6.67H104.46Z"/><path class="cls-28" d="M104.46,50.65V60.9H170s-3.75-.37-21.37-6.87S104.46,50.65,104.46,50.65Z"/><g class="cls-29"><path class="cls-4" d="M152.17,75.4c0-.22-.07-1.66-.07-1.66h-.63s.25,1.61,0,1.62a1.2,1.2,0,0,0-.64.19,2.35,2.35,0,0,1,1.17,0,1.51,1.51,0,0,0,.81.08S152.19,75.61,152.17,75.4Z"/><path class="cls-30" d="M153.38,72.61a1.94,1.94,0,0,0,1.36-1s-1.35-.12-1.75-.84a2,2,0,0,0,1.13-.77c-1.31.24-2-2.24-2-2.24s-.74,2.41-2.17,2.22c0,0,.11.46.83.67l.16,0a2.27,2.27,0,0,1-2,.88,1.9,1.9,0,0,0,1.62,1,2.43,2.43,0,0,1-2.15.93s.43,1.6,3.54.64a2.53,2.53,0,0,0,3.3-.88A2.29,2.29,0,0,1,153.38,72.61Z"/><path class="cls-4" d="M148.32,74.55c0-.21-.07-1.64-.07-1.64h-.63s.24,1.59,0,1.6a1.22,1.22,0,0,0-.64.19,2.36,2.36,0,0,1,1.17,0,1.55,1.55,0,0,0,.81.07S148.34,74.76,148.32,74.55Z"/><path class="cls-30" d="M149.53,71.78a2,2,0,0,0,1.36-1s-1.35-.12-1.75-.83a2,2,0,0,0,1.13-.77c-1.31.24-2-2.22-2-2.22s-.74,2.38-2.17,2.2c0,0,.1.46.83.66l.16,0a2.29,2.29,0,0,1-2,.87,1.89,1.89,0,0,0,1.61,1,2.45,2.45,0,0,1-2.15.92s.42,1.58,3.53.63a2.54,2.54,0,0,0,3.3-.88A2.28,2.28,0,0,1,149.53,71.78Z"/><path class="cls-4" d="M143.63,76.66c0-.21-.06-1.62-.06-1.62h-.63s.24,1.57,0,1.58a1.22,1.22,0,0,0-.64.18,2.39,2.39,0,0,1,1.17,0,1.55,1.55,0,0,0,.81.08S143.65,76.87,143.63,76.66Z"/><path class="cls-12" d="M144.86,73.93a1.94,1.94,0,0,0,1.36-1s-1.35-.12-1.75-.83a2,2,0,0,0,1.13-.75c-1.31.23-2-2.2-2-2.2s-.75,2.35-2.18,2.16c0,0,.1.45.83.65l.16,0a2.3,2.3,0,0,1-2,.85,1.9,1.9,0,0,0,1.61,1,2.46,2.46,0,0,1-2.16.9s.42,1.56,3.53.64a2.56,2.56,0,0,0,3.31-.84A2.31,2.31,0,0,1,144.86,73.93Z"/><path class="cls-4" d="M149.34,76.22c0-.19-.06-1.43-.06-1.43h-.55s.21,1.39,0,1.4a1,1,0,0,0-.55.16,2.05,2.05,0,0,1,1,0,1.33,1.33,0,0,0,.7.07S149.35,76.41,149.34,76.22Z"/><path class="cls-12" d="M150.23,73.86a1.68,1.68,0,0,0,1.18-.88s-1.17-.11-1.52-.73a1.7,1.7,0,0,0,1-.66c-1.14.21-1.77-1.94-1.77-1.94s-.65,2.08-1.89,1.9c0,0,.09.4.72.58l.14,0a2,2,0,0,1-1.76.75,1.66,1.66,0,0,0,1.41.89,2.12,2.12,0,0,1-1.87.79s.37,1.38,3.08.56a2.21,2.21,0,0,0,2.87-.75A2,2,0,0,1,150.23,73.86Z"/></g></g><polygon class="cls-31" points="119.67 68.74 156.75 27.91 119.67 27.91 119.67 68.74"/><path class="cls-32" d="M118.67,79.74h39V26.91h-39Zm2-50.83h35V77.74h-35Z"/><rect class="cls-32" x="119.5" y="41.15" width="37.43" height="1"/><rect class="cls-32" x="134.71" y="41.32" width="7" height="1.5"/><rect class="cls-8" x="117.84" y="26.9" width="40.37" height="3.5"/><rect class="cls-33" x="118.5" y="30.3" width="39.23" height="6.19"/><path class="cls-8" d="M157.53,35.89h-39a.69.69,0,0,0,0,1.37h39a.69.69,0,1,0,0-1.37Z"/><rect class="cls-8" x="7.17" y="109.07" width="10.25" height="6.75" rx="0.17" ry="0.17"/><circle class="cls-34" cx="12.3" cy="112.45" r="2.69"/><rect class="cls-35" x="12.06" y="110.87" width="0.47" height="1.16"/><rect class="cls-35" x="10.88" y="113.05" width="0.84" height="0.47"/><rect class="cls-35" x="12.88" y="113.05" width="0.84" height="0.47"/><rect class="cls-8" x="7.17" y="71.07" width="10.25" height="6.75" rx="0.17" ry="0.17"/><rect class="cls-34" x="9.8" y="72.41" width="2.24" height="4.08"/><rect class="cls-36" x="9.8" y="72.41" width="2.24" height="0.58"/><rect class="cls-37" x="12.56" y="72.41" width="2.24" height="4.08"/><rect class="cls-38" x="12.56" y="75.87" width="2.24" height="0.62"/><circle class="cls-8" cx="90.84" cy="49.57" r="7.83"/><path class="cls-5" d="M90.84,41.14a8.43,8.43,0,1,0,8.43,8.43A8.44,8.44,0,0,0,90.84,41.14Zm0,15.67a7.23,7.23,0,1,1,7.23-7.23A7.24,7.24,0,0,1,90.84,56.81Z"/><polygon class="cls-8" points="90.84 49.57 93.17 47.57 87.34 46.24 90.84 49.57"/><path class="cls-39" d="M92.85,47.19l-2,1.71-3.17-3a.5.5,0,0,0-.69.72l3.83,3.64L93.5,48a.5.5,0,0,0-.65-.76Z"/><path class="cls-7" d="M208.42,98.24h-5.83a.75.75,0,0,0,0,1.5h5.83a.75.75,0,0,0,0-1.5Z"/></g></g></svg>