<svg xmlns="http://www.w3.org/2000/svg" xmlns:xlink="http://www.w3.org/1999/xlink" viewBox="0 0 219.28 130"><defs><style>.cls-1{mask:url(#mask);filter:url(#luminosity-noclip-3);}.cls-2,.cls-4{mix-blend-mode:multiply;}.cls-2{fill:url(#Sfumatura_senza_nome_14);}.cls-3{mask:url(#mask-2);filter:url(#luminosity-noclip-4);}.cls-4{fill:url(#Sfumatura_senza_nome_14-2);}.cls-5{fill:#f9f9f8;}.cls-6{fill:#e1dddb;}.cls-7{fill:#918184;}.cls-8{fill:#756266;}.cls-9{fill:#ee7a5f;}.cls-10,.cls-31{fill:#d1cfcc;}.cls-11{fill:#adaca9;}.cls-12{fill:#584a4d;}.cls-13{fill:#e1dfdc;}.cls-14{fill:#ec6444;}.cls-15{fill:#ef7c58;}.cls-16,.cls-38,.cls-50{fill:#fff;}.cls-17{fill:#fbfafa;}.cls-18{fill:#949290;}.cls-19{fill:#7ca371;}.cls-20{fill:#8cae82;}.cls-21{fill:#b8b5b3;}.cls-22{fill:#f0f0f0;}.cls-23{fill:#b35f4b;}.cls-24{fill:#91b187;}.cls-25{fill:#9dba94;}.cls-26{fill:#a5999b;}.cls-27{fill:#c5bdbf;}.cls-28{fill:#b3c9ac;}.cls-29{fill:#c4d5bf;}.cls-30{fill:#9d9b99;}.cls-31,.cls-43,.cls-50{opacity:0.2;}.cls-32,.cls-44{opacity:0.5;}.cls-33{fill:#9d9092;}.cls-34{fill:#f39d89;}.cls-35,.cls-41,.cls-42,.cls-43,.cls-44,.cls-45{fill:#e6e6e6;}.cls-35,.cls-36,.cls-38{opacity:0.3;}.cls-37{mask:url(#mask-3);}.cls-39{mask:url(#mask-4);}.cls-40,.cls-42{opacity:0.6;}.cls-45{opacity:0.8;}.cls-46{fill:#e0e0e0;}.cls-47{fill:#ebebeb;}.cls-48{fill:#f6f6f6;}.cls-49{fill:#917a7f;}.cls-51{fill:#fcf7f1;}.cls-52{fill:#5d7a55;}.cls-53{fill:#efefef;}.cls-54{fill:#c1c1c1;}.cls-55{fill:#e4e4e4;}.cls-56{filter:url(#luminosity-noclip-2);}.cls-57{filter:url(#luminosity-noclip);}</style><filter id="luminosity-noclip" x="172.45" y="-8105.07" width="2.38" height="32766" filterUnits="userSpaceOnUse" color-interpolation-filters="sRGB"><feFlood flood-color="#fff" result="bg"/><feBlend in="SourceGraphic" in2="bg"/></filter><mask id="mask" x="172.45" y="-8105.07" width="2.38" height="32766" maskUnits="userSpaceOnUse"><g class="cls-57"/></mask><linearGradient id="Sfumatura_senza_nome_14" x1="174.98" y1="25.19" x2="172.87" y2="26.74" gradientUnits="userSpaceOnUse"><stop offset="0" stop-color="#fff"/><stop offset="0.76"/></linearGradient><filter id="luminosity-noclip-2" x="178.93" y="-8105.07" width="2.38" height="32766" filterUnits="userSpaceOnUse" color-interpolation-filters="sRGB"><feFlood flood-color="#fff" result="bg"/><feBlend in="SourceGraphic" in2="bg"/></filter><mask id="mask-2" x="178.93" y="-8105.07" width="2.38" height="32766" maskUnits="userSpaceOnUse"><g class="cls-56"/></mask><linearGradient id="Sfumatura_senza_nome_14-2" x1="181.46" y1="25.19" x2="179.36" y2="26.74" xlink:href="#Sfumatura_senza_nome_14"/><filter id="luminosity-noclip-3" x="172.45" y="22.49" width="2.38" height="7.53" filterUnits="userSpaceOnUse" color-interpolation-filters="sRGB"><feFlood flood-color="#fff" result="bg"/><feBlend in="SourceGraphic" in2="bg"/></filter><mask id="mask-3" x="172.45" y="22.49" width="2.38" height="7.53" maskUnits="userSpaceOnUse"><g class="cls-1"><path class="cls-2" d="M174.81,22.5h-2.25a.1.1,0,0,0-.11.11l.2,2.6.11.24.36,4.34a.26.26,0,0,0,.26.23h1.16c0-.41.23-4.42.27-4.53l-.12-.33S174.79,22.48,174.81,22.5Z"/></g></mask><filter id="luminosity-noclip-4" x="178.93" y="22.49" width="2.38" height="7.53" filterUnits="userSpaceOnUse" color-interpolation-filters="sRGB"><feFlood flood-color="#fff" result="bg"/><feBlend in="SourceGraphic" in2="bg"/></filter><mask id="mask-4" x="178.93" y="22.49" width="2.38" height="7.53" maskUnits="userSpaceOnUse"><g class="cls-3"><path class="cls-4" d="M181.29,22.5H179a.1.1,0,0,0-.11.11l.2,2.6.11.24.36,4.34a.26.26,0,0,0,.26.23H181c0-.41.23-4.42.27-4.53l-.12-.33S181.28,22.48,181.29,22.5Z"/></g></mask></defs><title>Kitchen</title><g id="Layer_2" data-name="Layer 2"><g id="kitchen"><rect class="cls-5" width="219.28" height="130"/><rect class="cls-6" width="219.28" height="10.15"/><rect class="cls-7" x="144.69" y="35.4" width="36.47" height="94.6"/><rect class="cls-8" x="182.81" y="35.4" width="36.47" height="94.6"/><rect class="cls-9" x="182.81" y="68.32" width="36.47" height="56.36"/><rect class="cls-9" x="182.81" y="35.4" width="36.47" height="30.72"/><rect class="cls-7" y="35.33" width="50.29" height="94.67"/><rect class="cls-8" x="3.09" y="38.71" width="44.12" height="18.55"/><rect class="cls-8" x="3.09" y="61.54" width="44.12" height="18.55"/><rect class="cls-10" x="21.64" y="84.78" width="112.48" height="45.22"/><rect class="cls-11" x="21.64" y="84.78" width="112.48" height="6.59"/><rect class="cls-12" y="124.72" width="219.28" height="5.28"/><rect class="cls-8" y="10.02" width="219.28" height="23.99"/><rect class="cls-13" x="23.55" y="82.57" width="39.81" height="2.45"/><rect class="cls-9" x="18.77" y="84.78" width="118.92" height="5.52"/><rect class="cls-14" x="52.73" y="92.96" width="13.45" height="4.69" rx="2.04" ry="2.04"/><path class="cls-15" d="M63.39,93.28h-8.5A1.7,1.7,0,0,0,53,94.77v.45a1.7,1.7,0,0,0,1.84,1.49h8.5a1.7,1.7,0,0,0,1.84-1.49v-.45A1.7,1.7,0,0,0,63.39,93.28Z"/><rect class="cls-16" x="58.58" y="97.65" width="1.76" height="21.39"/><path class="cls-16" d="M59.61,118.1h-.31a1,1,0,0,0-1,1v4.09h2.34v-4.09A1,1,0,0,0,59.61,118.1Z"/><rect class="cls-16" x="54.63" y="123.2" width="9.66" height="1.41" rx="0.61" ry="0.61"/><path class="cls-16" d="M61.84,111.67h-1.5V112h1.5a.68.68,0,0,1,.68.68v.07a.68.68,0,0,1-.68.68H57.08a.68.68,0,0,1-.68-.68v-.07a.68.68,0,0,1,.68-.68h1.5v-.32h-1.5a1,1,0,0,0-1,1v.07a1,1,0,0,0,1,1h4.76a1,1,0,0,0,1-1v-.07A1,1,0,0,0,61.84,111.67Z"/><rect class="cls-14" x="82.29" y="92.96" width="13.45" height="4.69" rx="2.04" ry="2.04"/><rect class="cls-16" x="88.13" y="97.65" width="1.76" height="21.39"/><path class="cls-16" d="M89.17,118.1h-.31a1,1,0,0,0-1,1v4.09h2.34v-4.09A1,1,0,0,0,89.17,118.1Z"/><rect class="cls-16" x="84.18" y="123.2" width="9.66" height="1.41" rx="0.61" ry="0.61"/><path class="cls-16" d="M91.39,111.67h-1.5V112h1.5a.68.68,0,0,1,.68.68v.07a.68.68,0,0,1-.68.68H86.63a.68.68,0,0,1-.68-.68v-.07a.68.68,0,0,1,.68-.68h1.5v-.32h-1.5a1,1,0,0,0-1,1v.07a1,1,0,0,0,1,1h4.76a1,1,0,0,0,1-1v-.07A1,1,0,0,0,91.39,111.67Z"/><rect class="cls-14" x="111.84" y="92.96" width="13.45" height="4.69" rx="2.04" ry="2.04"/><rect class="cls-16" x="117.69" y="97.65" width="1.76" height="21.39"/><path class="cls-16" d="M118.72,118.1h-.31a1,1,0,0,0-1,1v4.09h2.34v-4.09A1,1,0,0,0,118.72,118.1Z"/><rect class="cls-16" x="113.74" y="123.2" width="9.66" height="1.41" rx="0.61" ry="0.61"/><path class="cls-16" d="M120.95,111.67h-1.5V112h1.5a.68.68,0,0,1,.68.68v.07a.68.68,0,0,1-.68.68h-4.76a.68.68,0,0,1-.68-.68v-.07a.68.68,0,0,1,.68-.68h1.5v-.32h-1.5a1,1,0,0,0-1,1v.07a1,1,0,0,0,1,1h4.76a1,1,0,0,0,1-1v-.07A1,1,0,0,0,120.95,111.67Z"/><path class="cls-15" d="M93,93.33h-8.5a1.7,1.7,0,0,0-1.84,1.49v.45a1.7,1.7,0,0,0,1.84,1.49H93a1.7,1.7,0,0,0,1.84-1.49v-.45A1.7,1.7,0,0,0,93,93.33Z"/><path class="cls-15" d="M122.47,93.33H114a1.7,1.7,0,0,0-1.84,1.49v.45A1.7,1.7,0,0,0,114,96.75h8.5a1.7,1.7,0,0,0,1.84-1.49v-.45A1.7,1.7,0,0,0,122.47,93.33Z"/><path class="cls-17" d="M214.42,73.32a1,1,0,0,0-1,1v29.5a1,1,0,1,0,2,0V74.32A1,1,0,0,0,214.42,73.32Z"/><path class="cls-17" d="M214.42,51.57a1,1,0,0,0-1,1v8.5a1,1,0,1,0,2,0v-8.5A1,1,0,0,0,214.42,51.57Z"/><rect class="cls-12" x="147.67" y="39.57" width="29.5" height="25.5"/><rect class="cls-12" x="147.67" y="68.82" width="29.5" height="25.5"/><rect class="cls-18" x="93.17" y="83.03" width="40" height="1.75"/><path class="cls-19" d="M117,79.8A3.22,3.22,0,0,0,120.27,83h6.06a3.22,3.22,0,0,0,3.22-3.22V73H117Z"/><path class="cls-20" d="M117,79.13a3.22,3.22,0,0,0,3.22,3.22h4.82a3.22,3.22,0,0,0,3.22-3.22V73H117Z"/><path class="cls-21" d="M129.61,72.4H117a.44.44,0,0,0,0,.88h12.62a.44.44,0,0,0,0-.87Z"/><path class="cls-18" d="M123.3,70.22c-1.94,0-6.09.55-6.09,2.31h12.19C129.39,70.76,125.24,70.25,123.3,70.22Z"/><path class="cls-18" d="M123.08,70.21h0Z"/><path class="cls-12" d="M124.12,69.15h-1.64a.63.63,0,0,0,0,1.25h1.64a.63.63,0,0,0,0-1.25Z"/><rect class="cls-16" x="32.13" y="76.19" width="2.5" height="4.55"/><path class="cls-16" d="M34.92,64.35a4.77,4.77,0,0,0-4.77,4.77V80.75h1V69.12a3.78,3.78,0,0,1,7.57,0h1A4.77,4.77,0,0,0,34.92,64.35Z"/><path class="cls-16" d="M34.59,75.28H32.52a.39.39,0,0,0-.39.39v1.58h2.47V77c0-.25.18-1.08,1.85-1.08,1.48,0,1.36-.67,1.36-.67Z"/><rect class="cls-22" x="32.13" y="77.5" width="2.5" height="3.24"/><rect class="cls-16" x="38.59" y="68.9" width="1.23" height="1.45" rx="0.15" ry="0.15"/><path class="cls-16" d="M47.39,80.75H27.26A1.21,1.21,0,0,0,26.06,82v.62H48.6V82A1.21,1.21,0,0,0,47.39,80.75Z"/><rect class="cls-10" x="55.48" y="55.09" width="27.76" height="1.05"/><circle class="cls-10" cx="54.94" cy="55.62" r="1.26"/><circle class="cls-10" cx="82.91" cy="55.62" r="1.26"/><rect class="cls-23" x="69.48" y="56.15" width="11.37" height="14.5"/><path class="cls-19" d="M77.55,74.57s-1.5,4.67,5,6C82.55,80.57,84.38,75.07,77.55,74.57Z"/><path class="cls-24" d="M80,73.17s-3.16,3.75,2.35,7.45C82.39,80.61,86.18,76.22,80,73.17Z"/><path class="cls-25" d="M83.13,80.78s5-2.93.2-7.81C83.32,73,79.12,75.5,83.13,80.78Z"/><circle class="cls-15" cx="87.01" cy="77.32" r="3.08"/><circle class="cls-14" cx="89.09" cy="78.07" r="2.67"/><path class="cls-7" d="M76.95,79.92a4.86,4.86,0,0,0,4.86,4.86h5.72a4.86,4.86,0,0,0,4.86-4.86V78.21H76.95Z"/><path class="cls-26" d="M76.95,78.83a4.86,4.86,0,0,0,4.86,4.86h4.83a4.86,4.86,0,0,0,4.86-4.86v-.62H76.95Z"/><rect class="cls-7" x="3.23" y="13.57" width="43.95" height="17.25"/><rect class="cls-9" x="4.85" y="14.99" width="40.7" height="14.42"/><path class="cls-27" d="M28.28,26.7H22.12a.88.88,0,0,0,0,1.75h6.16a.88.88,0,0,0,0-1.75Z"/><rect class="cls-12" x="144.69" y="13.57" width="71.24" height="17.25"/><rect class="cls-13" x="147.67" y="39.57" width="29.5" height="7.21"/><rect class="cls-28" x="157.97" y="41.86" width="8.9" height="2.64"/><polygon class="cls-29" points="157.97 44.5 166.88 41.86 157.97 41.86 157.97 44.5"/><ellipse class="cls-30" cx="151.43" cy="43.18" rx="1.51" ry="1.52"/><ellipse class="cls-30" cx="172.9" cy="43.18" rx="1.51" ry="1.52"/><rect class="cls-13" x="150.11" y="48.82" width="24.62" height="1.31" rx="0.66" ry="0.66"/><rect class="cls-31" x="150.55" y="52.45" width="23.87" height="9.75"/><g class="cls-32"><rect class="cls-11" x="150.55" y="55.87" width="23.75" height="0.4"/><rect class="cls-11" x="150.55" y="58.37" width="23.75" height="0.4"/></g><rect class="cls-13" x="150.11" y="71.95" width="24.62" height="1.31" rx="0.66" ry="0.66"/><rect class="cls-31" x="150.55" y="75.8" width="23.87" height="15.21"/><g class="cls-32"><rect class="cls-11" x="150.55" y="82.23" width="23.75" height="0.4"/><rect class="cls-11" x="150.55" y="84.73" width="23.75" height="0.4"/></g><rect class="cls-10" x="102.67" y="9.82" width="21.75" height="32.19"/><polygon class="cls-33" points="98.47 41.08 94.47 57.66 132.63 57.66 128.63 41.08 98.47 41.08"/><path class="cls-33" d="M59.47,54.07a.58.58,0,0,0-.58.58V67.82a.58.58,0,1,0,1.17,0V54.65A.58.58,0,0,0,59.47,54.07Z"/><path class="cls-33" d="M61.36,68.58a.81.81,0,0,0-.76-.67H58.34a.81.81,0,0,0-.76.67L56.86,72A.86.86,0,0,0,57.63,73h3.69A.86.86,0,0,0,62.07,72Z"/><path class="cls-16" d="M58.48,68.62a.31.31,0,0,0-.29.27l-.38,3c0,.25.1.46.29.46a.46.46,0,0,0,.39-.46l.24-3A.23.23,0,0,0,58.48,68.62Z"/><path class="cls-16" d="M60.45,68.62a.23.23,0,0,0-.24.26l.24,3a.46.46,0,0,0,.39.46c.19,0,.32-.21.29-.46l-.38-3A.31.31,0,0,0,60.45,68.62Z"/><path class="cls-16" d="M59.54,68.61a.28.28,0,0,0-.27.27l-.14,3c0,.25.14.46.33.46a.42.42,0,0,0,.35-.46v-3A.26.26,0,0,0,59.54,68.61Z"/><rect class="cls-14" x="66.93" y="54.74" width="12.49" height="14.67"/><rect class="cls-34" x="68.84" y="54.74" width="1.64" height="14.67"/><rect class="cls-34" x="72.34" y="54.74" width="1.64" height="14.67"/><rect class="cls-34" x="75.84" y="54.74" width="1.64" height="14.67"/><path class="cls-35" d="M177.49,22.29h-5.14a.11.11,0,0,0-.11.12l.21,2.84.12.27.38,5a.27.27,0,0,0,.27.25h3.41a.27.27,0,0,0,.27-.25l.38-5,.12-.27.21-2.84A.11.11,0,0,0,177.49,22.29Z"/><path class="cls-35" d="M177.49,22.29h-5.14a.11.11,0,0,0-.11.12l.21,2.84.12.27h4.72l.12-.27.21-2.84A.11.11,0,0,0,177.49,22.29Z"/><polygon class="cls-35" points="172.56 25.52 177.28 25.52 177.39 25.25 172.44 25.25 172.56 25.52"/><path class="cls-35" d="M177.49,22.29h-5.14a.11.11,0,0,0-.11.12l.21,2.84.12.27.38,5a.27.27,0,0,0,.27.25h3.41a.27.27,0,0,0,.27-.25l.38-5,.12-.27.21-2.84A.11.11,0,0,0,177.49,22.29Zm-.3,2.91-.12.26-.38,4.3a.07.07,0,0,1-.07.07h-3.41a.07.07,0,0,1-.07-.07l-.38-4.3-.12-.26-.2-2.71h4.95Z"/><path class="cls-35" d="M177.49,22.29h-5.14a.11.11,0,0,0-.11.12v.08h5.35v-.08A.11.11,0,0,0,177.49,22.29Z"/><g class="cls-36"><path class="cls-16" d="M176.22,25.65c-.3,0-.55.17-.55.41l-.11,3.57h.91l.26-3.57C176.75,25.82,176.52,25.65,176.22,25.65Z"/><path class="cls-16" d="M174.92,25.65h0c-.29,0-.53.17-.52.41l.08,3.57h.9l.08-3.57C175.45,25.82,175.21,25.66,174.92,25.65Z"/><path class="cls-16" d="M173.61,25.65c-.3,0-.53.17-.51.41l.26,3.57h.91l-.11-3.57C174.16,25.82,173.91,25.65,173.61,25.65Z"/></g><g class="cls-37"><path class="cls-38" d="M174.81,22.5h-2.25a.1.1,0,0,0-.11.11l.2,2.6.11.24.36,4.34a.26.26,0,0,0,.26.23h1.16c0-.41.23-4.42.27-4.53l-.12-.33S174.79,22.48,174.81,22.5Z"/></g><path class="cls-35" d="M184,22.29h-5.14a.11.11,0,0,0-.11.12l.21,2.84.12.27.38,5a.27.27,0,0,0,.27.25h3.41a.27.27,0,0,0,.27-.25l.38-5,.12-.27.21-2.84A.11.11,0,0,0,184,22.29Z"/><path class="cls-35" d="M184,22.29h-5.14a.11.11,0,0,0-.11.12l.21,2.84.12.27h4.72l.12-.27.21-2.84A.11.11,0,0,0,184,22.29Z"/><polygon class="cls-35" points="179.04 25.52 183.76 25.52 183.88 25.25 178.92 25.25 179.04 25.52"/><path class="cls-35" d="M184,22.29h-5.14a.11.11,0,0,0-.11.12l.21,2.84.12.27.38,5a.27.27,0,0,0,.27.25h3.41a.27.27,0,0,0,.27-.25l.38-5,.12-.27.21-2.84A.11.11,0,0,0,184,22.29Zm-.3,2.91-.12.26-.38,4.3a.07.07,0,0,1-.07.07h-3.41a.07.07,0,0,1-.07-.07l-.38-4.3-.12-.26-.2-2.71h4.95Z"/><path class="cls-35" d="M184,22.29h-5.14a.11.11,0,0,0-.11.12v.08h5.35v-.08A.11.11,0,0,0,184,22.29Z"/><g class="cls-36"><path class="cls-16" d="M182.71,25.65c-.3,0-.55.17-.55.41L182,29.63H183l.26-3.57C183.23,25.82,183,25.65,182.71,25.65Z"/><path class="cls-16" d="M181.4,25.65h0c-.29,0-.53.17-.52.41l.08,3.57h.9l.08-3.57C181.93,25.82,181.7,25.66,181.4,25.65Z"/><path class="cls-16" d="M180.09,25.65c-.3,0-.53.17-.51.41l.26,3.57h.91l-.11-3.57C180.64,25.82,180.39,25.65,180.09,25.65Z"/></g><g class="cls-39"><path class="cls-38" d="M181.29,22.5H179a.1.1,0,0,0-.11.11l.2,2.6.11.24.36,4.34a.26.26,0,0,0,.26.23H181c0-.41.23-4.42.27-4.53l-.12-.33S181.28,22.48,181.29,22.5Z"/></g><g class="cls-40"><path class="cls-41" d="M189.51,30a2.59,2.59,0,0,1-.11-.56c0-.12,0-.24,0-.37s0-.27,0-.42,0-.29,0-.45,0-.31,0-.46,0-.31,0-.46,0-.3,0-.44,0-.28,0-.42l0-.37a2.25,2.25,0,0,1,.12-.56,1.58,1.58,0,0,1,.06-.16l0,0h0a.5.5,0,0,0,.07-.23l-.06,0-.12.05a.58.58,0,0,1-.23.06h-.1a.76.76,0,0,1-.25,0l-.13-.06h-.1a.49.49,0,0,0,.06.23h0l0,0a1.56,1.56,0,0,1,.06.16A2.25,2.25,0,0,1,189,26v.37c0,.13,0,.27,0,.42s0,.29,0,.45,0,.31,0,.46,0,.31,0,.46,0,.3,0,.44,0,.28,0,.42,0,.26,0,.37a2.58,2.58,0,0,1-.13.56c0,.13-.47.33-.47.33s0,.08.05.11a11.65,11.65,0,0,1,1.59,0s.06-.06,0-.1S189.56,30.13,189.51,30Z"/></g><g class="cls-40"><path class="cls-41" d="M189.21,29.43c0-.12,0-.24,0-.37s0-.27,0-.42,0-.29,0-.45,0-.31,0-.46,0-.31,0-.46,0-.3,0-.44,0-.28,0-.42V26a4.75,4.75,0,0,1,.06-.56c0-.07,0-.12,0-.16v0h0a1,1,0,0,0,0-.17l-.2,0h0a.77.77,0,0,1-.22,0,1,1,0,0,0,0,.17h0v0s0,.09,0,.16a4.75,4.75,0,0,1,0,.56c0,.12,0,.24,0,.37s0,.27,0,.42,0,.29,0,.45,0,.31,0,.46,0,.31,0,.46,0,.3,0,.44,0,.28,0,.42,0,.26,0,.37a5.4,5.4,0,0,1-.06.56.92.92,0,0,1-.22.33.12.12,0,0,0,0,.11,2.39,2.39,0,0,1,.72,0,.13.13,0,0,0,0-.1,1,1,0,0,1-.21-.35A5.37,5.37,0,0,1,189.21,29.43Z"/></g><path class="cls-42" d="M191.11,17.9a12.94,12.94,0,0,1,.48,1.93,6.25,6.25,0,0,1-.3,3.68,2.83,2.83,0,0,1-2,1.47h-.2a2.83,2.83,0,0,1-1.9-1.54,5.88,5.88,0,0,1-.16-3.69,12.92,12.92,0,0,1,.55-1.9h-.18s-2.72,6.25,1.66,7.4h.27c4.41-1,1.92-7.34,1.92-7.34Z"/><path class="cls-35" d="M191.11,17.9l-1.61,0h-.27l-1.61,0a12.92,12.92,0,0,0-.55,1.9,5.88,5.88,0,0,0,.16,3.69,2.83,2.83,0,0,0,1.9,1.54h.2a2.83,2.83,0,0,0,2-1.47,6.25,6.25,0,0,0,.3-3.68A12.94,12.94,0,0,0,191.11,17.9Z"/><path class="cls-42" d="M189.34,25h-.2a2.83,2.83,0,0,1-1.9-1.54,5.88,5.88,0,0,1-.16-3.69,12.92,12.92,0,0,1,.55-1.9h-.18s-2.72,6.25,1.66,7.4h.27a3,3,0,0,0,2.41-2.17,3.34,3.34,0,0,1-.56.57A2.84,2.84,0,0,1,189.34,25Z"/><path class="cls-43" d="M188.46,19.19a5.36,5.36,0,0,1,.4-1.33l-1.24,0a12.92,12.92,0,0,0-.55,1.9,5.88,5.88,0,0,0,.16,3.69,2.83,2.83,0,0,0,1.9,1.54h.2a3.08,3.08,0,0,0,1.33-.66l-.31.11C189.76,24.58,187.68,23.52,188.46,19.19Z"/><path class="cls-44" d="M189.66,17.87v0l.13,0c1.32.1,2.46,5.48-.11,7.22,4-1.22,1.6-7.25,1.6-7.25Z"/><g class="cls-40"><path class="cls-41" d="M191.25,30.53c-.06,0-1.59-.22-2.14-.23h0c-.51,0-2,.14-2.07.15a.15.15,0,0,0,0,.3h0s1.54-.16,2-.15h0c.54,0,2.09.22,2.11.22a.15.15,0,1,0,0-.29Z"/></g><path class="cls-41" d="M191.25,30.53c-.06,0-1.59-.22-2.14-.23h0c-.51,0-2,.14-2.07.15a.15.15,0,0,0-.13.16c0,.08,1.71-.13,2.2-.12h0c.54,0,2.26.28,2.27.2A.15.15,0,0,0,191.25,30.53Z"/><path class="cls-45" d="M187.91,17.84a3.19,3.19,0,0,0-.46,1.18c-.62,2.49.13,3.49.13,3.49L188,22a7.62,7.62,0,0,1,.68-4.12Z"/><path class="cls-45" d="M187.48,17.71a.06.06,0,0,0-.06.06h0a.06.06,0,0,0,.06.06l3.78.07a.06.06,0,0,0,.06-.06h0a.06.06,0,0,0-.06-.06Z"/><path class="cls-46" d="M10.92,76.08h6.54s2.8-1.25,2.8-2.8H8.11C8.11,74.83,10.92,76.08,10.92,76.08Z"/><path class="cls-16" d="M22,72.91H6.52a.3.3,0,1,0,0,.61H22a.3.3,0,1,0,0-.61Z"/><path class="cls-47" d="M10.92,78.21h6.54s2.8-1.25,2.8-2.8H8.11C8.11,77,10.92,78.21,10.92,78.21Z"/><path class="cls-16" d="M22,75H6.52a.3.3,0,1,0,0,.61H22A.3.3,0,1,0,22,75Z"/><path class="cls-48" d="M10.92,80.08h6.54s2.8-1.25,2.8-2.8H8.11C8.11,78.83,10.92,80.08,10.92,80.08Z"/><path class="cls-16" d="M22,76.91H6.52a.3.3,0,1,0,0,.61H22a.3.3,0,1,0,0-.61Z"/><path class="cls-14" d="M197.61,27.6a3.22,3.22,0,0,0,3.22,3.22h7.45a3.22,3.22,0,0,0,3.22-3.22V25.82H197.61Z"/><path class="cls-9" d="M197.61,27.24a3.22,3.22,0,0,0,3.22,3.22h6.4a3.22,3.22,0,0,0,3.22-3.22V25.82H197.61Z"/><path class="cls-21" d="M211.61,25.2H197.49a.44.44,0,0,0,0,.88h14.12a.44.44,0,0,0,0-.87Z"/><path class="cls-18" d="M204.31,23h0Z"/><path class="cls-18" d="M204.55,23c-2.16,0-6.77.55-6.77,2.31h13.54C211.32,23.56,206.71,23,204.55,23Z"/><path class="cls-49" d="M205.53,21.95h-2a.62.62,0,0,0,0,1.25h2a.63.63,0,0,0,0-1.25Z"/><path class="cls-19" d="M15.76,43.78v-.3H14.46v.3A1.85,1.85,0,0,0,13,45.58v1.13a1.82,1.82,0,0,0,.4,1.14v.46a1.82,1.82,0,0,0-.4,1.14V56a.9.9,0,0,0,.35.7c.2.3.63.9,1.37.43a.92.92,0,0,1,.77,0,.9.9,0,0,0,1.34-.38.9.9,0,0,0,.41-.74V49.44a1.82,1.82,0,0,0-.4-1.14v-.46a1.82,1.82,0,0,0,.4-1.14V45.58A1.85,1.85,0,0,0,15.76,43.78Z"/><rect class="cls-14" x="14.23" y="43.23" width="1.75" height="0.24" rx="0.1" ry="0.1"/><path class="cls-14" d="M15.5,42.45h-.78a.4.4,0,0,0-.4.4v.38H15.9v-.38A.4.4,0,0,0,15.5,42.45Z"/><rect class="cls-14" x="12.99" y="49.79" width="4.24" height="3.61"/><path class="cls-50" d="M15,43.86s0-.06,0-.09h-.54v.06A1.85,1.85,0,0,0,13,45.63v1.13a1.83,1.83,0,0,0,.4,1.15v.43a1.83,1.83,0,0,0-.4,1.15V56a.91.91,0,0,0,.37.73,1.35,1.35,0,0,0,.57.52,2.62,2.62,0,0,1-.44-1.42c0-2.05.39-7.51,1.31-7.51v-.37l.17-.19a2.57,2.57,0,0,0,.61-1.25A3.12,3.12,0,0,0,15,43.86Z"/><path class="cls-28" d="M9.88,43.47H8.27l-1,5a1,1,0,0,0-.29.7V56.8a.46.46,0,0,0,.46.46H10.6a.46.46,0,0,0,.46-.46V49.15a1,1,0,0,0-.29-.7Z"/><rect class="cls-19" x="8.05" y="43.24" width="2.04" height="0.38" rx="0.16" ry="0.16"/><path class="cls-19" d="M9.61,42.43H8.53a.38.38,0,0,0-.38.38v.53H10v-.53A.38.38,0,0,0,9.61,42.43Z"/><path class="cls-51" d="M9.05,49.18c-.72,0-1.31.23-1.42.54h0v5.82h2.89V49.72h0C10.36,49.41,9.77,49.18,9.05,49.18Z"/><path class="cls-50" d="M8.21,43.82l-.9,4.68a1,1,0,0,0-.29.7v7.62a.45.45,0,0,0,.2.36c0-1.91,1.22-7.7,1.36-8.85.16-1.33.54-4.21.67-4.52C9,43.81,8.21,43.83,8.21,43.82Z"/><path class="cls-12" d="M32.84,48.26a.18.18,0,1,0-.21.29,1.94,1.94,0,0,1,.66,1.66.18.18,0,0,0,.16.2h.07a.18.18,0,0,0,.13-.16A2.29,2.29,0,0,0,32.84,48.26Z"/><path class="cls-14" d="M34.38,49.31a1,1,0,0,0-.61.54c0,.05-.2.39-.2.39L33.16,50a1,1,0,0,0-.8-.18,1.45,1.45,0,0,0-1,1.93c.29,1.13,1.78,2.2,2.47,2a.64.64,0,0,0,.38-.26h0a.46.46,0,0,1,.43-.11.64.64,0,0,0,.45,0c.69-.18,1.47-1.84,1.17-3A1.45,1.45,0,0,0,34.38,49.31Z"/><path class="cls-12" d="M36.57,45.67a.19.19,0,0,0,0,.27,1.26,1.26,0,0,1,.48,1.12,1.78,1.78,0,0,1-.16.61.19.19,0,0,0,.08.26l.09,0a.19.19,0,0,0,.17-.1,2.17,2.17,0,0,0,.2-.76,1.64,1.64,0,0,0-.62-1.45A.19.19,0,0,0,36.57,45.67Z"/><path class="cls-52" d="M35,46.55s.58,2.06,2,1.27C37.07,47.82,37,46.33,35,46.55Z"/><path class="cls-19" d="M37.08,47.73c-1.27,0-1.12,1.69-1.41,2.31-.49,1-1.08,1-1,2.26a1.9,1.9,0,0,0,1.82,1.9A.68.68,0,0,0,36.9,54h0a.49.49,0,0,1,.47,0,.68.68,0,0,0,.46.15,1.88,1.88,0,0,0,1.69-2c0-1.24-.45-1-1.05-2.21C38.18,49.39,38.5,47.69,37.08,47.73Z"/><path class="cls-15" d="M40.58,49.69a2.61,2.61,0,0,0-3.32,1.82,2.53,2.53,0,0,0,2,3.11,2.53,2.53,0,0,0,3.29-1.72A2.61,2.61,0,0,0,40.58,49.69Z"/><path class="cls-52" d="M40.32,50a.1.1,0,1,0-.13.16l.45.37,0,0a.11.11,0,0,0,.09-.18Z"/><path class="cls-52" d="M40.74,50.11l-.57.1a.11.11,0,0,0,0,.21h0l.57-.1a.11.11,0,0,0,0-.21Z"/><path class="cls-41" d="M35.62,57.26h2.56a5,5,0,0,0,4.95-4.95H30.67A5,5,0,0,0,35.62,57.26Z"/><path class="cls-16" d="M35.36,56.59h2.43a4.5,4.5,0,0,0,4.68-4.28H30.67A4.5,4.5,0,0,0,35.36,56.59Z"/><rect class="cls-13" x="151.67" y="21.84" width="6.5" height="8.98" rx="1.42" ry="1.42"/><path class="cls-7" d="M156.76,20.65h-3.67a.58.58,0,1,0,0,1.17h3.67a.58.58,0,1,0,0-1.17Z"/><rect class="cls-14" x="152.15" y="24.78" width="5.54" height="3.13"/><rect class="cls-13" x="160.17" y="21.84" width="6.5" height="8.98" rx="1.42" ry="1.42"/><path class="cls-7" d="M165.26,20.65h-3.67a.58.58,0,1,0,0,1.17h3.67a.58.58,0,1,0,0-1.17Z"/><rect class="cls-19" x="160.65" y="24.78" width="5.54" height="3.13"/><circle class="cls-53" cx="73.36" cy="42.85" r="1.36"/><rect class="cls-54" x="73.08" y="10.15" width="0.8" height="31.04"/><path class="cls-55" d="M73.8,40.07h-.64l-3.24,3.25a.17.17,0,0,0,.12.3h6.88a.17.17,0,0,0,.12-.3Z"/><circle class="cls-53" cx="85" cy="42.85" r="1.36"/><rect class="cls-54" x="84.72" y="10.15" width="0.8" height="31.04"/><path class="cls-55" d="M85.44,40.07H84.8l-3.24,3.25a.17.17,0,0,0,.12.3h6.88a.17.17,0,0,0,.12-.3Z"/><circle class="cls-53" cx="60.99" cy="42.85" r="1.36"/><rect class="cls-54" x="60.71" y="10.15" width="0.8" height="31.04"/><path class="cls-55" d="M61.43,40.07H60.8l-3.24,3.25a.17.17,0,0,0,.12.3h6.88a.17.17,0,0,0,.12-.3Z"/></g></g></svg>