<svg xmlns="http://www.w3.org/2000/svg" viewBox="0 0 195.21 130"><defs><style>.cls-1{fill:#a7a4c3;}.cls-2,.cls-22{fill:#fff;}.cls-3{fill:#77748d;}.cls-4{fill:#cfcdde;}.cls-5{fill:#f4f4f4;}.cls-6{fill:#8e8aa8;}.cls-7{fill:#f2f1f0;}.cls-8{fill:#c7c5d9;}.cls-9{fill:#d5d4e3;}.cls-10{fill:#e2e1eb;}.cls-11{fill:#e7e6ef;}.cls-12{fill:#c8c8c8;}.cls-13{fill:#87ced9;}.cls-14{fill:#0097ae;}.cls-15,.cls-21{fill:#80b65d;}.cls-16{fill:#b3d39e;}.cls-17{fill:#5ebccc;}.cls-18{fill:#608946;}.cls-19,.cls-22{opacity:0.8;}.cls-20{fill:#b2b2b2;}.cls-21{opacity:0.5;}.cls-23{fill:#8db673;}.cls-24{fill:#ebebeb;}.cls-25{fill:#efeef4;}</style></defs><title>laundry</title><g id="Layer_2" data-name="Layer 2"><g id="laundry"><rect class="cls-1" width="195.14" height="130"/><rect class="cls-2" x="50.77" y="79.2" width="61.19" height="45.67"/><rect class="cls-3" x="50.77" y="79.2" width="61.19" height="3.76"/><rect class="cls-4" x="8.59" y="83.21" width="40" height="41.67"/><rect class="cls-5" x="8.59" y="79.21" width="40" height="9.92"/><circle class="cls-3" cx="28.59" cy="103.9" r="10.67" transform="translate(-78.96 110.74) rotate(-78.25)"/><path class="cls-6" d="M28.59,93.24A10.66,10.66,0,0,0,19.82,110c5.68-4.53,12.28-6.89,19.23-8.18A10.67,10.67,0,0,0,28.59,93.24Z"/><path class="cls-7" d="M28.59,92A11.92,11.92,0,1,0,40.51,103.9,11.93,11.93,0,0,0,28.59,92Zm0,21.33A9.42,9.42,0,1,1,38,103.9,9.43,9.43,0,0,1,28.59,113.32Z"/><circle class="cls-8" cx="28.59" cy="84.17" r="2.25"/><rect class="cls-8" x="34.1" y="81.54" width="13" height="5.25"/><polygon class="cls-9" points="34.1 86.79 47.1 81.54 34.1 81.54 34.1 86.79"/><rect class="cls-8" x="10.1" y="81.54" width="6.75" height="1.53"/><path class="cls-5" d="M85.49,60.9a5,5,0,0,0-5,5V77.4H82V65.9a3.5,3.5,0,1,1,7,0v2h1.5v-2A5,5,0,0,0,85.49,60.9Z"/><rect class="cls-10" x="73.83" y="73.17" width="3.08" height="5.15"/><polygon class="cls-5" points="70.91 72.99 76.91 73.66 76.91 72.16 70.91 72.16 70.91 72.99"/><rect class="cls-10" x="85.82" y="73.17" width="3.08" height="5.15"/><polygon class="cls-5" points="85.82 73.66 91.82 72.99 91.82 72.16 85.82 72.16 85.82 73.66"/><rect class="cls-2" x="58.11" y="77.37" width="46.5" height="1.83"/><rect class="cls-10" x="53.86" y="85.07" width="26.25" height="37.5"/><rect class="cls-10" x="82.61" y="85.07" width="26.25" height="37.5"/><rect class="cls-2" x="8.6" y="9.93" width="103.75" height="44.18"/><rect class="cls-3" x="62.95" y="12.68" width="46.19" height="38.67"/><rect class="cls-10" x="11.7" y="12.68" width="46.19" height="38.67"/><rect class="cls-2" x="127.27" y="9.88" width="67.94" height="114.87"/><rect class="cls-3" x="129.74" y="12.32" width="63" height="21.5"/><rect class="cls-11" x="129.74" y="112.24" width="63" height="9.58"/><rect class="cls-3" x="129.74" y="37.07" width="63" height="72.89"/><rect class="cls-12" x="129.74" y="47.02" width="63" height="2.15"/><path class="cls-13" d="M164.35,50.4a4.08,4.08,0,0,0,0-1,2,2,0,0,0-.64-.86.93.93,0,0,1-.44-.77,1,1,0,0,1,1-1,.92.92,0,0,1,.58.27h.71a1.47,1.47,0,0,0-1.28-.87,1.78,1.78,0,0,0-1.18.47,1.58,1.58,0,0,0-.44,1.16,1.5,1.5,0,0,0,.63,1.21,1.69,1.69,0,0,1,.47.55c0,.11,0,.77,0,.84l-7.6,4.32a.37.37,0,0,0-.11.41.37.37,0,0,0,.35.25h15.3a.37.37,0,0,0,.35-.25.39.39,0,0,0-.15-.45Zm-7.1,4.36L164,50.91l6.8,3.85Z"/><path class="cls-2" d="M172.67,59.76c-2.5-2.5-1.5-6.78-1.5-6.78l-4-1.22a4.29,4.29,0,0,1-3,4.1,4.28,4.28,0,0,1-3-4.1l-4,1.22s1,4.28-1.5,6.78l.5,10.5-1.48,8.39s7.25.92,9.33.92,9.62-.92,9.62-.92l-1.47-8.39Z"/><path class="cls-14" d="M156.73,30.32H136.48a1.75,1.75,0,0,0,0,3.5h20.25a1.75,1.75,0,0,0,0-3.5Z"/><path class="cls-2" d="M156.73,26.81H136.48a1.76,1.76,0,0,0,0,3.51h20.25a1.76,1.76,0,0,0,0-3.51Z"/><path class="cls-15" d="M156.73,23.31H136.48a1.75,1.75,0,0,0,0,3.5h20.25a1.75,1.75,0,0,0,0-3.5Z"/><path class="cls-13" d="M175.1,50.4a4.08,4.08,0,0,0,0-1,2,2,0,0,0-.64-.86.93.93,0,0,1-.44-.77,1,1,0,0,1,1-1,.92.92,0,0,1,.58.27h.71a1.47,1.47,0,0,0-1.28-.87,1.78,1.78,0,0,0-1.18.47,1.58,1.58,0,0,0-.44,1.16A1.5,1.5,0,0,0,174,49a1.69,1.69,0,0,1,.47.55c0,.11,0,.77,0,.84l-7.6,4.32a.37.37,0,0,0-.11.41.37.37,0,0,0,.35.25h15.3a.37.37,0,0,0,.35-.25.39.39,0,0,0-.15-.45ZM168,54.76l6.79-3.85,6.8,3.85Z"/><path class="cls-16" d="M183.42,59.76c-2.5-2.5-1.5-6.78-1.5-6.78l-4-1.22a4.29,4.29,0,0,1-3,4.1,4.28,4.28,0,0,1-3-4.1l-4,1.22s1,4.28-1.5,6.78l1.5,10.5L162.17,103l7.32,1a41.33,41.33,0,0,0,11.22,0l7-1-5.75-32.75Z"/><polygon class="cls-10" points="166.94 33.82 186.27 33.82 188.27 21.82 164.94 21.82 166.94 33.82"/><path class="cls-2" d="M188.52,21.65H164.69a1.09,1.09,0,1,0,0,2.17h23.83a1.09,1.09,0,0,0,0-2.17Z"/><rect class="cls-17" x="134.62" y="99.97" width="17.88" height="9.99"/><rect class="cls-14" x="134.2" y="98.34" width="18.73" height="2.19"/><rect class="cls-2" x="140.1" y="105.64" width="6.92" height="2.21"/><rect class="cls-15" x="134.62" y="88.34" width="17.88" height="9.99"/><rect class="cls-18" x="134.2" y="86.71" width="18.73" height="2.19"/><rect class="cls-2" x="140.1" y="94.01" width="6.92" height="2.21"/><g class="cls-19"><path class="cls-2" d="M77,35.77H74.91L71.92,49s-.33,2.2,1.5,2.2h5.1C80.35,51.21,80,49,80,49Z"/></g><path class="cls-20" d="M75.57,36.22s0,2.5.33,5.32c.44,3.8,1.2,6.53,2.28,8.11l.37-.25C76.07,45.76,76,36.32,76,36.22Z"/><path class="cls-21" d="M77.16,38.72h-2.4l-2.4,10.46a1.73,1.73,0,0,0,.25,1.18,1.14,1.14,0,0,0,.83.4H78.5a1.17,1.17,0,0,0,.83-.39,1.78,1.78,0,0,0,.26-1.19Z"/><path class="cls-2" d="M80.1,49.16l-3-13.11H74.85l-3,13.11h0a2.66,2.66,0,0,0,0,.34,2.14,2.14,0,0,0,.27,1.1,1.59,1.59,0,0,0,1.33.76h5.11a1.61,1.61,0,0,0,1.33-.76,2.24,2.24,0,0,0,.27-1.1,1.79,1.79,0,0,0,0-.34Zm-3.1-13-.07,0Zm2.73,14.4a1.43,1.43,0,0,1-1.21.69H73.43a1.44,1.44,0,0,1-1.21-.69,2,2,0,0,1-.25-1,1.42,1.42,0,0,1,0-.23.15.15,0,0,1,0-.07v0l3-13h2l3,13v0s0,.16,0,.3A2.07,2.07,0,0,1,79.73,50.52Z"/><path class="cls-14" d="M77.86,33.45s-.7.52-.7,1.08A7.21,7.21,0,0,0,79,36.28a.15.15,0,0,0,.18-.22A7.81,7.81,0,0,1,77.86,33.45Z"/><path class="cls-14" d="M78.93,32v.78l.77,0s0,0,0-.06v-.56s0-.06,0-.06Z"/><path class="cls-14" d="M78.84,31.89h-.22v.91h.22a.13.13,0,0,0,.13-.13V32A.13.13,0,0,0,78.84,31.89Z"/><path class="cls-2" d="M74.57,31.77a.45.45,0,0,0-.31.12l-2,1.86a.26.26,0,0,0,0,.39.27.27,0,0,0,.17.06h2.08a.4.4,0,0,1,.39.39v.63h2.21A3,3,0,0,1,78.62,33h0V31.77H74.57Z"/><rect class="cls-14" x="74.74" y="35.21" width="2.49" height="1.02" rx="0.13" ry="0.13"/><path class="cls-2" d="M76,46.28c-1.64,0-3,.75-3,1.68s1.33,1.69,3,1.69,3-.75,3-1.69S77.66,46.28,76,46.28Z"/><path class="cls-22" d="M75.09,44.23a.3.3,0,1,0,.3.3A.29.29,0,0,0,75.09,44.23Z"/><circle class="cls-22" cx="75.62" cy="43.42" r="0.24"/><path class="cls-22" d="M75.09,42.47a.14.14,0,0,0-.14.14.15.15,0,0,0,.14.15.15.15,0,0,0,.15-.15A.15.15,0,0,0,75.09,42.47Z"/><path class="cls-2" d="M93.4,23.46c-2.94,0-5,.61-6.14,1.81a2.87,2.87,0,0,0-.84,1.93v2.55a.31.31,0,0,0,.62,0V27.18a2.24,2.24,0,0,1,.69-1.5c.7-.73,2.25-1.6,5.67-1.6a.31.31,0,0,0,.31-.31A.31.31,0,0,0,93.4,23.46Z"/><path class="cls-2" d="M99.23,25.27c-1.13-1.2-3.2-1.81-6.13-1.81a.31.31,0,0,0-.31.31.3.3,0,0,0,.31.31c3.41,0,5,.87,5.66,1.6a2.24,2.24,0,0,1,.69,1.52v2.55a.31.31,0,1,0,.62,0V27.21A2.81,2.81,0,0,0,99.23,25.27Z"/><rect class="cls-23" x="85.62" y="27.04" width="15.27" height="24.32"/><path class="cls-2" d="M92,36.68c-2.9,1-4.7,3.7-4,6.07s3.59,3.5,6.49,2.51,4.7-3.69,4-6.06S94.93,35.7,92,36.68Z"/><path class="cls-2" d="M87.87,41.73l4.16-5c0-.9,4.34-3,4.34-3C86.71,36.41,87.87,41.73,87.87,41.73Z"/><path class="cls-2" d="M94.49,44.68c0,.9-4.34,3-4.34,3,9.66-2.72,8.5-8,8.5-8Z"/><rect class="cls-14" x="85.59" y="26.99" width="15.27" height="3.77"/><path class="cls-17" d="M30.13,69.38a.38.38,0,0,0-.26.46h0a.37.37,0,0,0,.45.27l.59-.16-.2-.74Z"/><path class="cls-2" d="M36.67,60.52l-.53.86L32,66.25a9.88,9.88,0,0,0-1.73,2.69l.33,1.21-.65,1.57.86,5a3,3,0,0,0,2.92,2.46h5.7a.43.43,0,0,0,.42-.54l-.32-1.15a2,2,0,0,1,.79-2.19l.62-.43L37,60.56A.17.17,0,0,0,36.67,60.52ZM33.36,77.31l-.5,0a.41.41,0,0,1-.37-.35l-.71-4.4a.4.4,0,0,1,.35-.47l1.13-.15a.41.41,0,0,1,.47.4l.09,4.6A.42.42,0,0,1,33.36,77.31Z"/><path class="cls-13" d="M34.16,63.69a19,19,0,0,1,1,3.23,12.75,12.75,0,0,1,.27,4.26,6,6,0,0,1-1.64,3.4l0,2.31v0l0,0c.29-.16,2,.22,4.55-2.91L35.25,62.42Z"/><path class="cls-17" d="M37,60.05h0a.27.27,0,0,0-.19.33l4,14.59a.27.27,0,0,0,.33.18h0a.27.27,0,0,0,.19-.33l-4-14.59A.27.27,0,0,0,37,60.05Z"/><path class="cls-24" d="M33.49,72.26a.35.35,0,0,0-.33.37l.13,2.26a.35.35,0,0,0,.37.33.34.34,0,0,0,.33-.37l-.13-2.26A.35.35,0,0,0,33.49,72.26Z"/><path class="cls-17" d="M105.44,44.49a7.74,7.74,0,0,0,0-4.6A7.8,7.8,0,0,0,103.15,37a.63.63,0,0,0-.41-.15h-2.61a.61.61,0,0,0-.41.15,7.7,7.7,0,0,0-2.29,2.92,7.74,7.74,0,0,0,0,4.6,6.21,6.21,0,0,1-.37,2.87c-.35,1.09-.89,4,.34,4h8.07c1.22,0,.69-2.91.33-4A6.37,6.37,0,0,1,105.44,44.49Zm-.62-2.37c-.31.15-.93-.54-1.4-1.54s-.6-1.91-.3-2,.93.55,1.39,1.54S105.12,42,104.82,42.12Z"/><path class="cls-13" d="M105.52,46.32c-.62-1.48-1.45-2.79-2.2-4.27s-1.36-3.23-.68-4.9a1.33,1.33,0,0,1,.18-.31h0v-.29H100.1v.29a.57.57,0,0,0-.38.14,7.7,7.7,0,0,0-2.29,2.92,7.74,7.74,0,0,0,0,4.6v0A13.23,13.23,0,0,1,98,51.36h7.49c1.22,0,.69-2.91.33-4C105.74,47.17,105.62,46.78,105.52,46.32Z"/><path class="cls-14" d="M102.62,35.4h-.1v-.47a3.43,3.43,0,0,0-.42-1.12h-1.34a3.43,3.43,0,0,0-.42,1.12v.47h-.1a.2.2,0,0,0-.2.18l-.12,1h3l-.12-1A.2.2,0,0,0,102.62,35.4Z"/><path class="cls-2" d="M99.81,40.74c-1.5,0-1.69,2-.68,6.43a2.82,2.82,0,0,0,2.72,2.41,2.57,2.57,0,0,0,2.71-2.41C104.56,45.43,101.31,40.74,99.81,40.74Z"/><path class="cls-2" d="M54.1,46.32H50.85a1.25,1.25,0,0,0,0,2.5H54.1a1.25,1.25,0,0,0,0-2.5Z"/><path class="cls-2" d="M76.35,87.4H73.1a1.25,1.25,0,0,0,0,2.5h3.25a1.25,1.25,0,0,0,0-2.5Z"/><path class="cls-2" d="M89.85,87.4H86.6a1.25,1.25,0,0,0,0,2.5h3.25a1.25,1.25,0,0,0,0-2.5Z"/><rect class="cls-25" width="195.14" height="10.14"/><rect class="cls-3" y="124.72" width="195.14" height="5.28"/></g></g></svg>