<svg xmlns="http://www.w3.org/2000/svg" viewBox="0 0 219.28 130"><defs><style>.cls-1{fill:#99c57d;}.cls-2{fill:#5d7a55;}.cls-3{fill:#584a4d;}.cls-4{fill:#edebeb;}.cls-5{opacity:0.4;}.cls-6{fill:#42573d;}.cls-16,.cls-7{fill:#fff;}.cls-8{fill:#dbd6d7;}.cls-9{fill:#ef7c58;}.cls-10{fill:#7ca371;}.cls-11{fill:#918184;}.cls-12{fill:#ec6444;}.cls-13{fill:#cfc8c9;}.cls-14{fill:#796e71;}.cls-15{fill:#403637;}.cls-16{opacity:0.2;}.cls-17{fill:#2c2527;}.cls-18{fill:#eeeced;}.cls-19{opacity:0.5;}.cls-20{fill:#69585b;}.cls-21{fill:#696766;}.cls-22{fill:#42383a;}.cls-23{fill:#635457;}.cls-24{fill:#7d7b79;}.cls-25{fill:#fbe0d7;}.cls-26{fill:#b3c9ac;}.cls-27{fill:#fcfcfc;}.cls-28{fill:#f1edec;}.cls-29{fill:#7c9a69;}</style></defs><title>Livingroom</title><g id="Layer_2" data-name="Layer 2"><g id="living_room" data-name="living room"><rect class="cls-1" width="219.28" height="130"/><rect class="cls-2" width="219.28" height="10.15"/><rect class="cls-3" y="124.72" width="219.28" height="5.28"/><polygon class="cls-3" points="109.88 124.7 111.49 124.7 115.2 115.19 111.01 115.51 109.88 124.7"/><polygon class="cls-3" points="182.85 115.19 186.56 124.7 188.17 124.7 187.04 115.51 182.85 115.19"/><rect class="cls-3" x="109.15" y="115.56" width="79.74" height="1.75"/><path class="cls-4" d="M188.25,76.53H109.8a2.94,2.94,0,0,0-2.94,2.94v28h84.33v-28A2.94,2.94,0,0,0,188.25,76.53Z"/><g class="cls-5"><g class="cls-5"><path class="cls-6" d="M124.26,83.22s-.11.42-.2,1.06a18.18,18.18,0,0,0,0,4.65c.09.63.2,1.06.2,1.06s.11-.42.2-1.06a18.2,18.2,0,0,0,0-4.65C124.37,83.64,124.26,83.22,124.26,83.22Z"/></g><g class="cls-5"><path class="cls-6" d="M124.26,86.25a18,18,0,0,0-2.33.15c-.63.09-1.06.2-1.06.2s.42.11,1.06.2a18.2,18.2,0,0,0,4.65,0c.63-.09,1.06-.2,1.06-.2s-.42-.11-1.06-.2A18.17,18.17,0,0,0,124.26,86.25Z"/></g></g><g class="cls-5"><g class="cls-5"><path class="cls-6" d="M149,83.22s-.11.42-.2,1.06a18.19,18.19,0,0,0,0,4.65c.09.63.2,1.06.2,1.06s.11-.42.2-1.06a18.2,18.2,0,0,0,0-4.65C149.13,83.64,149,83.22,149,83.22Z"/></g><g class="cls-5"><path class="cls-6" d="M149,86.25a18,18,0,0,0-2.33.15c-.63.09-1.06.2-1.06.2s.42.11,1.06.2a18.2,18.2,0,0,0,4.65,0c.63-.09,1.06-.2,1.06-.2s-.42-.11-1.06-.2A18.17,18.17,0,0,0,149,86.25Z"/></g></g><g class="cls-5"><g class="cls-5"><path class="cls-6" d="M173.79,83.22s-.11.42-.2,1.06a18.2,18.2,0,0,0,0,4.65c.09.63.2,1.06.2,1.06s.11-.42.2-1.06a18.19,18.19,0,0,0,0-4.65C173.9,83.64,173.79,83.22,173.79,83.22Z"/></g><g class="cls-5"><path class="cls-6" d="M173.79,86.25a18,18,0,0,0-2.33.15c-.63.09-1.06.2-1.06.2s.42.11,1.06.2a18.2,18.2,0,0,0,4.65,0c.63-.09,1.06-.2,1.06-.2s-.42-.11-1.06-.2A18.17,18.17,0,0,0,173.79,86.25Z"/></g></g><path class="cls-7" d="M195,88.13h-4.77a2.91,2.91,0,0,0-2.89,2.6l-1.47,13.6A1.89,1.89,0,0,1,184,106H114.06a1.89,1.89,0,0,1-1.88-1.68l-1.47-13.6a2.91,2.91,0,0,0-2.89-2.6h-4.77a2.91,2.91,0,0,0-2.89,3.24l2.31,20.43a4.64,4.64,0,0,0,4.61,4.12H191a4.64,4.64,0,0,0,4.61-4.12l2.31-20.43A2.91,2.91,0,0,0,195,88.13Z"/><rect class="cls-7" x="112.98" y="95.82" width="35.53" height="9.18" rx="2.08" ry="2.08"/><rect class="cls-7" x="149.54" y="95.82" width="35.53" height="9.18" rx="2.08" ry="2.08"/><circle class="cls-8" cx="124.26" cy="86.6" r="0.92"/><circle class="cls-8" cx="149.03" cy="86.6" r="0.92"/><circle class="cls-8" cx="173.79" cy="86.6" r="0.92"/><path class="cls-7" d="M192.21,42.57a20,20,0,0,0-9.72,2.51L183,46a19,19,0,0,1,9.23-2.38A14.65,14.65,0,0,1,206.84,58.2v66.2h1V58.2A15.65,15.65,0,0,0,192.21,42.57Z"/><path class="cls-4" d="M183,44.74a7.83,7.83,0,0,0-6.41,12.33h12.81A7.83,7.83,0,0,0,183,44.74Z"/><path class="cls-7" d="M213.13,122.74H201.84a1,1,0,0,0,0,2h11.29a1,1,0,0,0,0-2Z"/><rect class="cls-3" x="107.09" y="44.3" width="55.5" height="3.05"/><path class="cls-2" d="M149.41,42.8a1.48,1.48,0,0,0,1.48,1.48h1.58A1.48,1.48,0,0,0,154,42.8V32h-4.55Z"/><path class="cls-9" d="M151,41.36a2.92,2.92,0,0,0,2.92,2.92h2.49a2.92,2.92,0,0,0,2.92-2.92V39.45H151Z"/><rect class="cls-2" x="109.34" y="32.1" width="3.33" height="12.17"/><rect class="cls-10" x="109.34" y="34.35" width="3.33" height="3"/><rect class="cls-11" x="119.48" y="32.04" width="1.76" height="12.17" transform="translate(-4.86 21.98) rotate(-10.23)"/><rect class="cls-12" x="121.29" y="32.04" width="1.76" height="12.17" transform="translate(-4.83 22.3) rotate(-10.23)"/><rect class="cls-13" x="112.72" y="30.95" width="1.91" height="13.32"/><rect class="cls-7" x="114.59" y="30.95" width="1.91" height="13.32"/><rect class="cls-9" x="116.53" y="30.95" width="1.91" height="13.32"/><rect class="cls-14" x="20.51" y="41.77" width="58.62" height="34.99"/><path class="cls-15" d="M19,78.26H80.63v-38H19Zm3-35H77.63v32H22Z"/><polygon class="cls-16" points="22.14 75.09 77.46 43.44 22.14 43.44 22.14 75.09"/><rect class="cls-3" x="8.89" y="40.19" width="5.98" height="38.15"/><rect class="cls-3" x="84.76" y="40.19" width="5.98" height="38.15"/><circle class="cls-17" cx="11.88" cy="48.57" r="2.12"/><circle class="cls-17" cx="11.88" cy="59.26" r="2.12"/><circle class="cls-17" cx="11.88" cy="69.96" r="2.12"/><circle class="cls-17" cx="87.75" cy="48.57" r="2.12"/><circle class="cls-17" cx="87.75" cy="59.26" r="2.12"/><circle class="cls-17" cx="87.75" cy="69.96" r="2.12"/><rect class="cls-18" x="8.65" y="103.75" width="84.33" height="20.99"/><g class="cls-19"><rect class="cls-20" x="12.41" y="107.24" width="36.55" height="14"/><rect class="cls-20" x="52.68" y="107.24" width="36.55" height="14"/></g><rect class="cls-21" x="17.14" y="120.44" width="4.54" height="0.79"/><rect class="cls-21" x="39.34" y="120.44" width="4.54" height="0.79"/><rect class="cls-22" x="15.18" y="116.05" width="30.65" height="4.43"/><rect class="cls-23" x="16.48" y="117.41" width="12.15" height="1.7"/><circle class="cls-23" cx="39.46" cy="118.26" r="0.56"/><circle class="cls-23" cx="41.49" cy="118.26" r="0.56"/><circle class="cls-23" cx="43.52" cy="118.26" r="0.56"/><rect class="cls-21" x="17.14" y="115.27" width="4.54" height="0.79"/><rect class="cls-21" x="39.34" y="115.27" width="4.54" height="0.79"/><rect class="cls-22" x="15.18" y="110.88" width="30.65" height="4.43"/><circle class="cls-23" cx="17.28" cy="113.1" r="0.56"/><circle class="cls-23" cx="19.16" cy="113.1" r="0.56"/><rect class="cls-24" x="37.79" y="112.23" width="6.42" height="1.41"/><rect class="cls-9" x="53.84" y="113.37" width="1.25" height="7.88"/><rect class="cls-25" x="53.84" y="114.47" width="1.25" height="2.39"/><rect class="cls-10" x="55.88" y="113.37" width="1.25" height="7.88"/><rect class="cls-7" x="55.88" y="114.47" width="1.25" height="2.39"/><rect class="cls-2" x="57.97" y="113.37" width="1.25" height="7.88"/><rect class="cls-7" x="57.97" y="114.47" width="1.25" height="2.39"/><rect class="cls-25" x="60.05" y="113.37" width="1.25" height="7.88"/><rect class="cls-12" x="62.13" y="113.37" width="1.25" height="7.88"/><rect class="cls-25" x="62.13" y="114.47" width="1.25" height="2.39"/><rect class="cls-26" x="64.59" y="113.37" width="1.25" height="7.88" transform="translate(-30.81 23.54) rotate(-16.61)"/><rect class="cls-27" x="70.5" y="116.82" width="17.67" height="4.42"/><circle class="cls-13" cx="72.84" cy="119.03" r="1.12"/><path class="cls-13" d="M86.69,117.72H76.62a.41.41,0,0,0,0,.81H86.69a.41.41,0,0,0,0-.81Z"/><path class="cls-13" d="M80.68,119.53H78.84a.41.41,0,0,0,0,.81h1.84a.41.41,0,1,0,0-.81Z"/><path class="cls-13" d="M77.11,119.53h-.49a.41.41,0,0,0,0,.81h.49a.41.41,0,1,0,0-.81Z"/><path class="cls-13" d="M86.69,119.53H82.4a.41.41,0,1,0,0,.81h4.28a.41.41,0,0,0,0-.81Z"/><rect class="cls-28" x="18.76" y="91.65" width="8.5" height="11.25"/><path class="cls-12" d="M18,103.65H28V90.9H18Zm1.5-11.25h7v9.75h-7Z"/><rect class="cls-28" x="25.09" y="95.19" width="5.83" height="7.72"/><path class="cls-29" d="M24.34,103.65h7.33V94.44H24.34Zm1.5-7.72h4.33v6.22H25.84Z"/><path class="cls-3" d="M80.73,100.95l-.24-7.44H79.15l-.26,7.44c0,.84-.65,1.23-1.52,1.52l-2.38,1v.29h9.62v-.29l-2.38-1C81.36,102.13,80.73,101.79,80.73,100.95Z"/><polygon class="cls-9" points="73.73 87.33 72.81 95.76 86.81 95.76 85.88 87.33 73.73 87.33"/><rect class="cls-7" x="72.53" y="95.46" width="14.44" height="0.42" rx="0.19" ry="0.19"/><rect class="cls-7" x="73.41" y="87.29" width="12.79" height="0.42" rx="0.19" ry="0.19"/></g></g></svg>