<svg xmlns="http://www.w3.org/2000/svg" viewBox="0 0 300.98 82.03"><defs><style>.cls-1{fill:#00c109;}.cls-2{fill:#898989;}.cls-3{fill:none;}</style></defs><title>Logo</title><g id="Layer_2" data-name="Layer 2"><g id="Layer_1-2" data-name="Layer 1"><path class="cls-1" d="M121.69,82C120.83,82,14.6,82,13.81,82,4.63,81.46,0,77.94,0,70.6V24.9q0-12,16.21-12T32.57,24.41V46H13.92V71c0,.68,0,2.36.65,2.48.87.16,106.09.36,107.12.36M18.65,37.5v-13q0-2.78-2.34-2.78t-2.39,2.78v13Z"/><path class="cls-1" d="M68.26,70H54.35V24.51q0-2.59-2.42-2.59a2.17,2.17,0,0,0-2.42,2.49V70H35.6V13.33H49.51v1.9q2.79-2.29,8.62-2.29a12.58,12.58,0,0,1,7,2.05,6.7,6.7,0,0,1,3.18,6Z"/><path class="cls-2" d="M100.44,70H71.58V0H87V61h13.48Z"/><path class="cls-2" d="M116.36,10.21H102.44V0h13.92Zm0,59.81H102.44V13.33h13.92Z"/><path class="cls-2" d="M121.69,82v-8.2H133q4.94,0,4.94-5.13-2.74,2.1-8.62,2.1a11.85,11.85,0,0,1-7.12-2.17,6.71,6.71,0,0,1-3-5.69V22.22q0-9.28,11.11-9.28,2.94,0,7.73,2.49l1.81-2.1h12V69.24a17.57,17.57,0,0,1-2.18,9.16Q147.5,82,136.14,82Zm16.25-22.12V24.32q0-2.59-2.39-2.59t-2.44,2.59v35.5q0,2.59,2.44,2.59T137.94,59.91Z"/><path class="cls-2" d="M187.5,70H173.58V24.32q0-2.59-2.34-2.59t-2.39,2.49V70H154.93V0h13.92V15q2.48-2.1,8.62-2.1a11.73,11.73,0,0,1,7.06,2.15,6.71,6.71,0,0,1,3,5.71Z"/><path class="cls-2" d="M218.21,70h-8.79q-9.42,0-11.28-2.83T196.29,56.3V21.73h-6.2v-8.4h6.2V1.9h13.92V13.33h7.52v8.4h-7.52V56.2q0,2.49,1.49,3.34t6.52.85Z"/><path class="cls-2" d="M270.51,70H255.13V0h15.38Z"/><path class="cls-2" d="M301,70h-8.79q-9.42,0-11.28-2.83T279.05,56.3V21.73h-6.2v-8.4h6.2V1.9H293V13.33h7.52v8.4H293V56.2q0,2.49,1.49,3.34t6.52.85Z"/><path class="cls-1" d="M230.48,44.33a7.67,7.67,0,1,1,8.76,0c-.94.66-.81,5.61-3.05,7.06-.68.44-.93,1.26-1.36,1.26s-.62-.83-1.27-1.26C231.66,50.09,231.41,45,230.48,44.33Z"/><line class="cls-3" x1="233.15" y1="50.41" x2="236.56" y2="50.41"/></g></g></svg>