<svg xmlns="http://www.w3.org/2000/svg" xmlns:xlink="http://www.w3.org/1999/xlink" viewBox="0 0 903.5 904"><defs><style>.cls-1,.cls-2,.cls-5{stroke:#000;stroke-miterlimit:10;}.cls-1{fill:url(#linear-gradient);}.cls-2{fill:none;}.cls-3{fill:url(#linear-gradient-2);}.cls-4{fill:url(#linear-gradient-3);}.cls-5{stroke-width:4px;fill:url(#linear-gradient-4);}</style><linearGradient id="linear-gradient" x1="158.49" y1="-55.94" x2="745.01" y2="959.94" gradientUnits="userSpaceOnUse"><stop offset="0" stop-color="#fff"/><stop offset="1" stop-color="#c4c4c4"/></linearGradient><linearGradient id="linear-gradient-2" x1="456" y1="759.14" x2="456" y2="-13.42" gradientTransform="translate(912 922) rotate(180)" xlink:href="#linear-gradient"/><linearGradient id="linear-gradient-3" x1="453" y1="196" x2="453" y2="744" gradientTransform="translate(912 922) rotate(180)" gradientUnits="userSpaceOnUse"><stop offset="0" stop-color="#fff"/><stop offset="1" stop-color="#e6e6e6"/></linearGradient><linearGradient id="linear-gradient-4" x1="458.5" y1="214.5" x2="458.5" y2="269.5" xlink:href="#linear-gradient"/></defs><title>switch_on</title><g id="Layer_2" data-name="Layer 2"><g id="Layer_1-2" data-name="Layer 1"><path class="cls-1" d="M820.9.5H82.6A82.33,82.33,0,0,0,.5,82.6V821.4a82.33,82.33,0,0,0,82.1,82.1H820.9A82.33,82.33,0,0,0,903,821.4V82.6A82.33,82.33,0,0,0,820.9.5ZM767,738.75A26.32,26.32,0,0,1,740.75,765H171.25A26.32,26.32,0,0,1,145,738.75V183.25A26.32,26.32,0,0,1,171.25,157h569.5A26.32,26.32,0,0,1,767,183.25Z"/><rect class="cls-2" x="172" y="178" width="574" height="548" rx="31.58" ry="31.58"/><path d="M171.25,765h569.5A26.32,26.32,0,0,0,767,738.75V183.25A26.32,26.32,0,0,0,740.75,157H171.25A26.32,26.32,0,0,0,145,183.25v555.5A26.32,26.32,0,0,0,171.25,765ZM151,189.11a26.33,26.33,0,0,1,26.25-26.25h557.5A26.33,26.33,0,0,1,761,189.11V732.89a26.33,26.33,0,0,1-26.25,26.25H177.25A26.33,26.33,0,0,1,151,732.89Z"/><path class="cls-3" d="M177.25,759.14h557.5A26.33,26.33,0,0,0,761,732.89V189.11a26.33,26.33,0,0,0-26.25-26.25H177.25A26.33,26.33,0,0,0,151,189.11V732.89A26.33,26.33,0,0,0,177.25,759.14ZM172,209.58A31.67,31.67,0,0,1,203.58,178H714.42A31.67,31.67,0,0,1,746,209.58V694.42A31.67,31.67,0,0,1,714.42,726H203.58A31.67,31.67,0,0,1,172,694.42Z"/><rect class="cls-4" x="172" y="178" width="574" height="548" rx="31.58" ry="31.58"/><path d="M459.5,645.5a20,20,0,1,1-20,20,20,20,0,0,1,20-20m0-4a24,24,0,1,0,24,24,24,24,0,0,0-24-24Z"/><line class="cls-5" x1="458.5" y1="214.5" x2="458.5" y2="269.5"/></g></g></svg>